# Blender 4.1.1
# www.blender.org
mtllib skydome.mtl
o 球
v 0.000000 41.573479 27.778513
v 0.000000 27.778513 41.573479
v 0.000000 9.754517 49.039261
v 0.000000 0.000000 50.000000
v 0.000000 -9.754517 49.039261
v 0.000000 -27.778513 41.573479
v 1.903012 49.039261 9.567085
v 3.732892 46.193974 18.766516
v 5.419319 41.573479 27.244755
v 6.897484 35.355339 34.675995
v 8.110583 27.778513 40.774654
v 9.011997 19.134172 45.306370
v 9.567085 9.754517 48.096985
v 9.754517 0.000000 49.039261
v 9.567085 -9.754517 48.096985
v 9.011997 -19.134172 45.306370
v 8.110583 -27.778513 40.774654
v 6.897484 -35.355339 34.675995
v 5.419319 -41.573479 27.244755
v 3.732892 -46.193974 18.766516
v 1.903012 -49.039261 9.567085
v 3.732891 49.039261 9.011997
v 7.322331 46.193974 17.677671
v 10.630377 41.573479 25.663996
v 13.529902 35.355339 32.664074
v 15.909481 27.778513 38.408882
v 17.677668 19.134172 42.677670
v 18.766514 9.754517 45.306370
v 19.134171 0.000000 46.193974
v 18.766514 -9.754517 45.306370
v 17.677668 -19.134172 42.677670
v 15.909481 -27.778513 38.408882
v 13.529902 -35.355339 32.664074
v 10.630377 -41.573479 25.663996
v 7.322331 -46.193974 17.677671
v 3.732891 -49.039261 9.011997
v 5.419318 49.039261 8.110582
v 10.630377 46.193974 15.909483
v 15.432914 41.573479 23.096985
v 19.642374 35.355339 29.396889
v 23.096985 27.778513 34.567078
v 25.663996 19.134172 38.408886
v 27.244755 9.754517 40.774654
v 27.778513 0.000000 41.573475
v 27.244755 -9.754517 40.774654
v 25.663996 -19.134172 38.408886
v 23.096985 -27.778513 34.567078
v 19.642374 -35.355339 29.396889
v 15.432914 -41.573479 23.096985
v 10.630377 -46.193974 15.909483
v 5.419318 -49.039261 8.110582
v 6.897484 49.039261 6.897483
v 13.529902 46.193974 13.529902
v 19.642372 41.573479 19.642370
v 25.000000 35.355339 25.000000
v 29.396885 27.778513 29.396883
v 32.664070 19.134172 32.664074
v 34.675995 9.754517 34.675991
v 35.355339 0.000000 35.355331
v 34.675995 -9.754517 34.675991
v 32.664070 -19.134172 32.664074
v 29.396885 -27.778513 29.396883
v 25.000000 -35.355339 25.000000
v 19.642372 -41.573479 19.642370
v 13.529902 -46.193974 13.529902
v 6.897484 -49.039261 6.897483
v 8.110582 49.039261 5.419318
v 15.909483 46.193974 10.630375
v 23.096987 41.573479 15.432911
v 29.396889 35.355339 19.642374
v 34.567081 27.778513 23.096981
v 38.408882 19.134172 25.664000
v 40.774654 9.754517 27.244749
v 41.573479 0.000000 27.778500
v 40.774654 -9.754517 27.244749
v 38.408882 -19.134172 25.664000
v 34.567081 -27.778513 23.096981
v 29.396889 -35.355339 19.642374
v 23.096987 -41.573479 15.432911
v 15.909483 -46.193974 10.630375
v 8.110582 -49.039261 5.419318
v 0.000000 50.000000 0.000000
v 9.011995 49.039261 3.732891
v 17.677668 46.193974 7.322330
v 25.663996 41.573479 10.630373
v 32.664074 35.355339 13.529902
v 38.408882 27.778513 15.909475
v 42.677666 19.134172 17.677671
v 45.306366 9.754517 18.766508
v 46.193970 0.000000 19.134161
v 45.306366 -9.754517 18.766508
v 42.677666 -19.134172 17.677671
v 38.408882 -27.778513 15.909475
v 32.664074 -35.355339 13.529902
v 25.663996 -41.573479 10.630373
v 17.677668 -46.193974 7.322330
v 9.011995 -49.039261 3.732891
v 9.567083 49.039261 1.903011
v 18.766512 46.193974 3.732891
v 27.244753 41.573479 5.419316
v 34.675995 35.355339 6.897485
v 40.774651 27.778513 8.110579
v 45.306366 19.134172 9.011999
v 48.096981 9.754517 9.567080
v 49.039253 0.000000 9.754506
v 48.096981 -9.754517 9.567080
v 45.306366 -19.134172 9.011999
v 40.774651 -27.778513 8.110579
v 34.675995 -35.355339 6.897485
v 27.244753 -41.573479 5.419316
v 18.766512 -46.193974 3.732891
v 9.567083 -49.039261 1.903011
v 9.754513 49.039261 -0.000001
v 19.134171 46.193974 -0.000001
v 27.778507 41.573479 -0.000003
v 35.355335 35.355339 0.000001
v 41.573471 27.778513 -0.000004
v 46.193974 19.134172 0.000002
v 49.039257 9.754517 -0.000004
v 49.999985 0.000000 -0.000008
v 49.039257 -9.754517 -0.000004
v 46.193974 -19.134172 0.000002
v 41.573471 -27.778513 -0.000004
v 35.355335 -35.355339 0.000001
v 27.778507 -41.573479 -0.000003
v 19.134171 -46.193974 -0.000001
v 9.754513 -49.039261 -0.000001
v 9.567082 49.039261 -1.903012
v 18.766512 46.193974 -3.732893
v 27.244749 41.573479 -5.419320
v 34.675991 35.355339 -6.897483
v 40.774647 27.778513 -8.110586
v 45.306366 19.134172 -9.011995
v 48.096977 9.754517 -9.567089
v 49.039246 0.000000 -9.754521
v 48.096977 -9.754517 -9.567089
v 45.306366 -19.134172 -9.011995
v 40.774647 -27.778513 -8.110586
v 34.675991 -35.355339 -6.897483
v 27.244749 -41.573479 -5.419320
v 18.766512 -46.193974 -3.732893
v 9.567082 -49.039261 -1.903012
v 9.011994 49.039261 -3.732891
v 17.677668 46.193974 -7.322331
v 25.663990 41.573479 -10.630377
v 32.664070 35.355339 -13.529900
v 38.408875 27.778513 -15.909483
v 42.677666 19.134172 -17.677666
v 45.306362 9.754517 -18.766516
v 46.193954 0.000000 -19.134172
v 45.306362 -9.754517 -18.766516
v 42.677666 -19.134172 -17.677666
v 38.408875 -27.778513 -15.909483
v 32.664070 -35.355339 -13.529900
v 25.663990 -41.573479 -10.630377
v 17.677668 -46.193974 -7.322331
v 9.011994 -49.039261 -3.732891
v 8.110579 49.039261 -5.419317
v 15.909479 46.193974 -10.630376
v 23.096979 41.573479 -15.432912
v 29.396885 35.355339 -19.642370
v 34.567074 27.778513 -23.096985
v 38.408882 19.134172 -25.663992
v 40.774647 9.754517 -27.244753
v 41.573456 0.000000 -27.778509
v 40.774647 -9.754517 -27.244753
v 38.408882 -19.134172 -25.663992
v 34.567074 -27.778513 -23.096985
v 29.396885 -35.355339 -19.642370
v 23.096979 -41.573479 -15.432912
v 15.909479 -46.193974 -10.630376
v 8.110579 -49.039261 -5.419317
v 6.897481 49.039261 -6.897481
v 13.529899 46.193974 -13.529902
v 19.642363 41.573479 -19.642370
v 24.999996 35.355339 -24.999996
v 29.396877 27.778513 -29.396883
v 32.664070 19.134172 -32.664066
v 34.675987 9.754517 -34.675991
v 35.355312 0.000000 -35.355331
v 34.675987 -9.754517 -34.675991
v 32.664070 -19.134172 -32.664066
v 29.396877 -27.778513 -29.396883
v 24.999996 -35.355339 -24.999996
v 19.642363 -41.573479 -19.642370
v 13.529899 -46.193974 -13.529902
v 6.897481 -49.039261 -6.897481
v 5.419316 49.039261 -8.110579
v 10.630372 46.193974 -15.909481
v 15.432904 41.573479 -23.096983
v 19.642370 35.355339 -29.396885
v 23.096977 27.778513 -34.567078
v 25.663996 19.134172 -38.408878
v 27.244743 9.754517 -40.774651
v 27.778486 0.000000 -41.573467
v 27.244743 -9.754517 -40.774651
v 25.663996 -19.134172 -38.408878
v 23.096977 -27.778513 -34.567078
v 19.642370 -35.355339 -29.396885
v 15.432904 -41.573479 -23.096983
v 10.630372 -46.193974 -15.909481
v 5.419316 -49.039261 -8.110579
v 3.732889 49.039261 -9.011992
v 7.322326 46.193974 -17.677666
v 10.630367 41.573479 -25.663990
v 13.529900 35.355339 -32.664070
v 15.909472 27.778513 -38.408875
v 17.677668 19.134172 -42.677658
v 18.766502 9.754517 -45.306362
v 19.134148 0.000000 -46.193958
v 18.766502 -9.754517 -45.306362
v 17.677668 -19.134172 -42.677658
v 15.909472 -27.778513 -38.408875
v 13.529900 -35.355339 -32.664070
v 10.630367 -41.573479 -25.663990
v 7.322326 -46.193974 -17.677666
v 3.732889 -49.039261 -9.011992
v 1.903010 49.039261 -9.567080
v 3.732888 46.193974 -18.766508
v 5.419312 41.573479 -27.244743
v 6.897483 35.355339 -34.675991
v 8.110576 27.778513 -40.774643
v 9.011997 19.134172 -45.306362
v 9.567076 9.754517 -48.096973
v 9.754496 0.000000 -49.039238
v 9.567076 -9.754517 -48.096973
v 9.011997 -19.134172 -45.306362
v 8.110576 -27.778513 -40.774643
v 6.897483 -35.355339 -34.675991
v 5.419312 -41.573479 -27.244743
v 3.732888 -46.193974 -18.766508
v 1.903010 -49.039261 -9.567080
v -0.000000 49.039261 -9.754510
v -0.000003 46.193974 -19.134167
v -0.000005 41.573479 -27.778498
v -0.000001 35.355339 -35.355331
v -0.000005 27.778513 -41.573463
v 0.000001 19.134172 -46.193962
v -0.000007 9.754517 -49.039249
v -0.000016 0.000000 -49.999966
v -0.000007 -9.754517 -49.039249
v 0.000001 -19.134172 -46.193962
v -0.000005 -27.778513 -41.573463
v -0.000001 -35.355339 -35.355331
v -0.000005 -41.573479 -27.778498
v -0.000003 -46.193974 -19.134167
v -0.000000 -49.039261 -9.754510
v -1.903011 49.039261 -9.567079
v -3.732893 46.193974 -18.766508
v -5.419321 41.573479 -27.244741
v -6.897484 35.355339 -34.675987
v -8.110586 27.778513 -40.774639
v -9.011993 19.134172 -45.306358
v -9.567089 9.754517 -48.096970
v -9.754526 0.000000 -49.039227
v -9.567089 -9.754517 -48.096970
v -9.011993 -19.134172 -45.306358
v -8.110586 -27.778513 -40.774639
v -6.897484 -35.355339 -34.675987
v -5.419321 -41.573479 -27.244741
v -3.732893 -46.193974 -18.766508
v -1.903011 -49.039261 -9.567079
v -3.732889 49.039261 -9.011992
v -7.322331 46.193974 -17.677666
v -10.630375 41.573479 -25.663980
v -13.529900 35.355339 -32.664066
v -15.909481 27.778513 -38.408871
v -17.677662 19.134172 -42.677654
v -18.766514 9.754517 -45.306351
v -19.134174 0.000000 -46.193935
v -18.766514 -9.754517 -45.306351
v -17.677662 -19.134172 -42.677654
v -15.909481 -27.778513 -38.408871
v -13.529900 -35.355339 -32.664066
v -10.630375 -41.573479 -25.663980
v -7.322331 -46.193974 -17.677666
v -3.732889 -49.039261 -9.011992
v -5.419315 49.039261 -8.110578
v -10.630375 46.193974 -15.909476
v -15.432909 41.573479 -23.096970
v -19.642370 35.355339 -29.396883
v -23.096981 27.778513 -34.567066
v -25.663986 19.134172 -38.408875
v -27.244753 9.754517 -40.774639
v -27.778507 0.000000 -41.573437
v -27.244753 -9.754517 -40.774639
v -25.663986 -19.134172 -38.408875
v -23.096981 -27.778513 -34.567066
v -19.642370 -35.355339 -29.396883
v -15.432909 -41.573479 -23.096970
v -10.630375 -46.193974 -15.909476
v -5.419315 -49.039261 -8.110578
v -6.897479 49.039261 -6.897479
v -13.529900 46.193974 -13.529897
v -19.642365 41.573479 -19.642357
v -24.999996 35.355339 -24.999994
v -29.396879 27.778513 -29.396872
v -32.664062 19.134172 -32.664062
v -34.675987 9.754517 -34.675976
v -35.355324 0.000000 -35.355297
v -34.675987 -9.754517 -34.675976
v -32.664062 -19.134172 -32.664062
v -29.396879 -27.778513 -29.396872
v -24.999996 -35.355339 -24.999994
v -19.642365 -41.573479 -19.642357
v -13.529900 -46.193974 -13.529897
v -6.897479 -49.039261 -6.897479
v 0.000000 -50.000000 0.000000
v -8.110578 49.039261 -5.419314
v -15.909478 46.193974 -10.630371
v -23.096975 41.573479 -15.432898
v -29.396883 35.355339 -19.642368
v -34.567074 27.778513 -23.096972
v -38.408871 19.134172 -25.663990
v -40.774647 9.754517 -27.244736
v -41.573456 0.000000 -27.778471
v -40.774647 -9.754517 -27.244736
v -38.408871 -19.134172 -25.663990
v -34.567074 -27.778513 -23.096972
v -29.396883 -35.355339 -19.642368
v -23.096975 -41.573479 -15.432898
v -15.909478 -46.193974 -10.630371
v -8.110578 -49.039261 -5.419314
v -9.011991 49.039261 -3.732888
v -17.677664 46.193974 -7.322326
v -25.663980 41.573479 -10.630362
v -32.664066 35.355339 -13.529899
v -38.408871 27.778513 -15.909466
v -42.677654 19.134172 -17.677664
v -45.306358 9.754517 -18.766495
v -46.193943 0.000000 -19.134134
v -45.306358 -9.754517 -18.766495
v -42.677654 -19.134172 -17.677664
v -38.408871 -27.778513 -15.909466
v -32.664066 -35.355339 -13.529899
v -25.663980 -41.573479 -10.630362
v -17.677664 -46.193974 -7.322326
v -9.011991 -49.039261 -3.732888
v -9.567078 49.039261 -1.903009
v -18.766506 46.193974 -3.732888
v -27.244736 41.573479 -5.419308
v -34.675987 35.355339 -6.897481
v -40.774639 27.778513 -8.110572
v -45.306355 19.134172 -9.011994
v -48.096970 9.754517 -9.567069
v -49.039223 0.000000 -9.754485
v -48.096970 -9.754517 -9.567069
v -45.306355 -19.134172 -9.011994
v -40.774639 -27.778513 -8.110572
v -34.675987 -35.355339 -6.897481
v -27.244736 -41.573479 -5.419308
v -18.766506 -46.193974 -3.732888
v -9.567078 -49.039261 -1.903009
v -9.754507 49.039261 0.000001
v -19.134163 46.193974 0.000003
v -27.778488 41.573479 0.000007
v -35.355331 35.355339 0.000001
v -41.573460 27.778513 0.000008
v -46.193958 19.134172 0.000001
v -49.039242 9.754517 0.000013
v -49.999954 0.000000 0.000022
v -49.039242 -9.754517 0.000013
v -46.193958 -19.134172 0.000001
v -41.573460 -27.778513 0.000008
v -35.355331 -35.355339 0.000001
v -27.778488 -41.573479 0.000007
v -19.134163 -46.193974 0.000003
v -9.754507 -49.039261 0.000001
v -9.567077 49.039261 1.903011
v -18.766504 46.193974 3.732893
v -27.244732 41.573479 5.419322
v -34.675987 35.355339 6.897484
v -40.774632 27.778513 8.110588
v -45.306351 19.134172 9.011995
v -48.096962 9.754517 9.567095
v -49.039211 0.000000 9.754529
v -48.096962 -9.754517 9.567095
v -45.306351 -19.134172 9.011995
v -40.774632 -27.778513 8.110588
v -34.675987 -35.355339 6.897484
v -27.244732 -41.573479 5.419322
v -18.766504 -46.193974 3.732893
v -9.567077 -49.039261 1.903011
v -9.011989 49.039261 3.732889
v -17.677660 46.193974 7.322330
v -25.663971 41.573479 10.630374
v -32.664062 35.355339 13.529900
v -38.408859 27.778513 15.909481
v -42.677650 19.134172 17.677662
v -45.306343 9.754517 18.766516
v -46.193920 0.000000 19.134174
v -45.306343 -9.754517 18.766516
v -42.677650 -19.134172 17.677662
v -38.408859 -27.778513 15.909481
v -32.664062 -35.355339 13.529900
v -25.663971 -41.573479 10.630374
v -17.677660 -46.193974 7.322330
v -9.011989 -49.039261 3.732889
v -8.110576 49.039261 5.419315
v -15.909472 46.193974 10.630373
v -23.096960 41.573479 15.432908
v -29.396879 35.355339 19.642370
v -34.567059 27.778513 23.096981
v -38.408871 19.134172 25.663986
v -40.774628 9.754517 27.244753
v -41.573421 0.000000 27.778503
v -40.774628 -9.754517 27.244753
v -38.408871 -19.134172 25.663986
v -34.567059 -27.778513 23.096981
v -29.396879 -35.355339 19.642370
v -23.096960 -41.573479 15.432908
v -15.909472 -46.193974 10.630373
v -8.110576 -49.039261 5.419315
v -6.897477 49.039261 6.897479
v -13.529894 46.193974 13.529897
v -19.642347 41.573479 19.642363
v -24.999990 35.355339 24.999994
v -29.396862 27.778513 29.396877
v -32.664059 19.134172 32.664059
v -34.675968 9.754517 34.675987
v -35.355286 0.000000 35.355316
v -34.675968 -9.754517 34.675987
v -32.664059 -19.134172 32.664059
v -29.396862 -27.778513 29.396877
v -24.999990 -35.355339 24.999994
v -19.642347 -41.573479 19.642363
v -13.529894 -46.193974 13.529897
v -6.897477 -49.039261 6.897479
v -5.419312 49.039261 8.110576
v -10.630368 46.193974 15.909475
v -15.432890 41.573479 23.096972
v -19.642365 35.355339 29.396883
v -23.096964 27.778513 34.567066
v -25.663984 19.134172 38.408871
v -27.244728 9.754517 40.774639
v -27.778461 0.000000 41.573448
v -27.244728 -9.754517 40.774639
v -25.663984 -19.134172 38.408871
v -23.096964 -27.778513 34.567066
v -19.642365 -35.355339 29.396883
v -15.432890 -41.573479 23.096972
v -10.630368 -46.193974 15.909475
v -5.419312 -49.039261 8.110576
v -3.732887 49.039261 9.011989
v -7.322324 46.193974 17.677662
v -10.630355 41.573479 25.663975
v -13.529895 35.355339 32.664066
v -15.909460 27.778513 38.408863
v -17.677658 19.134172 42.677650
v -18.766489 9.754517 45.306351
v -19.134129 0.000000 46.193932
v -18.766489 -9.754517 45.306351
v -17.677658 -19.134172 42.677650
v -15.909460 -27.778513 38.408863
v -13.529895 -35.355339 32.664066
v -10.630355 -41.573479 25.663975
v -7.322324 -46.193974 17.677662
v -3.732887 -49.039261 9.011989
v -1.903009 49.039261 9.567075
v -3.732887 46.193974 18.766504
v -5.419302 41.573479 27.244726
v -6.897479 35.355339 34.675987
v -8.110566 27.778513 40.774628
v -9.011991 19.134172 45.306351
v -9.567066 9.754517 48.096962
v -9.754481 0.000000 49.039207
v -9.567066 -9.754517 48.096962
v -9.011991 -19.134172 45.306351
v -8.110566 -27.778513 40.774628
v -6.897479 -35.355339 34.675987
v -5.419302 -41.573479 27.244726
v -3.732887 -46.193974 18.766504
v -1.903009 -49.039261 9.567075
v 0.000001 49.039261 9.754505
v 0.000003 46.193974 19.134161
v 0.000004 35.355339 35.355331
v 0.000003 19.134172 46.193951
v 0.000003 -19.134172 46.193951
v 0.000004 -35.355339 35.355331
v 0.000011 -41.573479 27.778477
v 0.000003 -46.193974 19.134161
v 0.000001 -49.039261 9.754505
vn -0.0759 0.6326 -0.7708
vn -0.0759 -0.6326 -0.7708
vn -0.0624 0.7715 -0.6332
vn -0.0865 -0.4696 -0.8786
vn -0.0464 0.8810 -0.4709
vn -0.0938 -0.2890 -0.9527
vn -0.0286 0.9565 -0.2902
vn -0.0975 -0.0975 -0.9904
vn -0.0097 -0.9951 -0.0980
vn -0.0097 0.9951 -0.0980
vn -0.0975 0.0976 -0.9904
vn -0.0286 -0.9565 -0.2902
vn -0.0938 0.2890 -0.9527
vn -0.0464 -0.8810 -0.4709
vn -0.0865 0.4696 -0.8786
vn -0.0624 -0.7715 -0.6332
vn -0.2563 0.4696 -0.8448
vn -0.1847 -0.7715 -0.6088
vn -0.2248 0.6326 -0.7412
vn -0.2248 -0.6326 -0.7412
vn -0.1847 0.7715 -0.6088
vn -0.2563 -0.4696 -0.8448
vn -0.1374 0.8810 -0.4528
vn -0.2779 -0.2890 -0.9161
vn -0.0846 0.9565 -0.2790
vn -0.2889 -0.0976 -0.9524
vn -0.0286 -0.9951 -0.0942
vn -0.0286 0.9951 -0.0942
vn -0.2889 0.0975 -0.9524
vn -0.0846 -0.9565 -0.2790
vn -0.2779 0.2890 -0.9161
vn -0.1374 -0.8810 -0.4528
vn -0.1374 0.9565 -0.2571
vn -0.4691 -0.0975 -0.8777
vn -0.0464 -0.9951 -0.0869
vn -0.0464 0.9951 -0.0869
vn -0.4691 0.0975 -0.8777
vn -0.1374 -0.9565 -0.2571
vn -0.4513 0.2890 -0.8443
vn -0.2231 -0.8810 -0.4173
vn -0.4162 0.4696 -0.7786
vn -0.2999 -0.7715 -0.5611
vn -0.3651 0.6326 -0.6831
vn -0.3651 -0.6326 -0.6831
vn -0.2999 0.7715 -0.5611
vn -0.4162 -0.4696 -0.7786
vn -0.2231 0.8810 -0.4173
vn -0.4513 -0.2890 -0.8443
vn -0.4036 -0.7715 -0.4918
vn -0.4913 0.6326 -0.5987
vn -0.4913 -0.6326 -0.5987
vn -0.4036 0.7715 -0.4918
vn -0.5601 -0.4696 -0.6825
vn -0.3002 0.8810 -0.3658
vn -0.6073 -0.2890 -0.7400
vn -0.1850 0.9565 -0.2254
vn -0.6314 -0.0975 -0.7693
vn -0.0625 -0.9951 -0.0761
vn -0.0625 0.9951 -0.0761
vn -0.6314 0.0975 -0.7693
vn -0.1850 -0.9565 -0.2254
vn -0.6073 0.2890 -0.7400
vn -0.3002 -0.8810 -0.3658
vn -0.5601 0.4696 -0.6825
vn -0.7693 -0.0975 -0.6314
vn -0.0761 -0.9951 -0.0625
vn -0.0761 0.9951 -0.0625
vn -0.7693 0.0975 -0.6314
vn -0.2254 -0.9566 -0.1850
vn -0.7400 0.2890 -0.6073
vn -0.3658 -0.8810 -0.3002
vn -0.6825 0.4696 -0.5601
vn -0.4918 -0.7715 -0.4036
vn -0.5987 0.6326 -0.4913
vn -0.5987 -0.6326 -0.4913
vn -0.4918 0.7715 -0.4036
vn -0.6825 -0.4696 -0.5601
vn -0.3658 0.8810 -0.3002
vn -0.7400 -0.2890 -0.6073
vn -0.2254 0.9565 -0.1850
vn -0.6831 0.6326 -0.3651
vn -0.6831 -0.6326 -0.3651
vn -0.5611 0.7715 -0.2999
vn -0.7786 -0.4696 -0.4162
vn -0.4173 0.8810 -0.2230
vn -0.8443 -0.2890 -0.4513
vn -0.2571 0.9565 -0.1374
vn -0.8777 -0.0975 -0.4691
vn -0.0869 -0.9951 -0.0464
vn -0.0869 0.9951 -0.0464
vn -0.8777 0.0975 -0.4691
vn -0.2571 -0.9565 -0.1374
vn -0.8443 0.2890 -0.4513
vn -0.4173 -0.8810 -0.2230
vn -0.7786 0.4696 -0.4162
vn -0.5611 -0.7715 -0.2999
vn -0.0942 -0.9951 -0.0286
vn -0.0942 0.9951 -0.0286
vn -0.9524 0.0975 -0.2889
vn -0.2790 -0.9565 -0.0846
vn -0.9161 0.2890 -0.2779
vn -0.4528 -0.8810 -0.1374
vn -0.8448 0.4696 -0.2563
vn -0.6088 -0.7715 -0.1847
vn -0.7412 0.6326 -0.2248
vn -0.7412 -0.6326 -0.2248
vn -0.6088 0.7715 -0.1847
vn -0.8448 -0.4696 -0.2563
vn -0.4528 0.8810 -0.1374
vn -0.9161 -0.2890 -0.2779
vn -0.2790 0.9565 -0.0846
vn -0.9524 -0.0975 -0.2889
vn -0.7708 -0.6326 -0.0759
vn -0.6332 0.7715 -0.0624
vn -0.8786 -0.4696 -0.0865
vn -0.4709 0.8810 -0.0464
vn -0.9527 -0.2890 -0.0938
vn -0.2902 0.9565 -0.0286
vn -0.9904 -0.0975 -0.0975
vn -0.0980 -0.9951 -0.0097
vn -0.0980 0.9951 -0.0097
vn -0.9904 0.0975 -0.0975
vn -0.2902 -0.9565 -0.0286
vn -0.9527 0.2890 -0.0938
vn -0.4709 -0.8810 -0.0464
vn -0.8786 0.4696 -0.0865
vn -0.6332 -0.7715 -0.0624
vn -0.7708 0.6326 -0.0759
vn -0.9904 0.0975 0.0976
vn -0.2902 -0.9565 0.0286
vn -0.9527 0.2890 0.0938
vn -0.4709 -0.8810 0.0464
vn -0.8786 0.4696 0.0865
vn -0.6332 -0.7715 0.0624
vn -0.7708 0.6326 0.0759
vn -0.7708 -0.6326 0.0759
vn -0.6332 0.7715 0.0624
vn -0.8786 -0.4696 0.0865
vn -0.4709 0.8810 0.0464
vn -0.9527 -0.2890 0.0938
vn -0.2902 0.9565 0.0286
vn -0.9904 -0.0975 0.0976
vn -0.0980 -0.9951 0.0097
vn -0.0980 0.9951 0.0097
vn -0.6088 0.7715 0.1847
vn -0.8448 -0.4696 0.2563
vn -0.4528 0.8810 0.1374
vn -0.9161 -0.2890 0.2779
vn -0.2790 0.9565 0.0846
vn -0.9524 -0.0975 0.2889
vn -0.0942 -0.9951 0.0286
vn -0.0942 0.9951 0.0286
vn -0.9524 0.0975 0.2889
vn -0.2790 -0.9565 0.0846
vn -0.9161 0.2890 0.2779
vn -0.4528 -0.8810 0.1374
vn -0.8448 0.4696 0.2563
vn -0.6088 -0.7715 0.1847
vn -0.7412 0.6326 0.2248
vn -0.7412 -0.6326 0.2248
vn -0.8443 0.2890 0.4513
vn -0.4173 -0.8810 0.2230
vn -0.7786 0.4696 0.4162
vn -0.5611 -0.7715 0.2999
vn -0.6831 0.6326 0.3651
vn -0.6831 -0.6326 0.3651
vn -0.5611 0.7715 0.2999
vn -0.7786 -0.4696 0.4162
vn -0.4173 0.8810 0.2230
vn -0.8443 -0.2890 0.4513
vn -0.2571 0.9565 0.1374
vn -0.8777 -0.0975 0.4691
vn -0.0869 -0.9951 0.0464
vn -0.0869 0.9951 0.0464
vn -0.8777 0.0975 0.4691
vn -0.2571 -0.9565 0.1374
vn -0.3658 0.8810 0.3002
vn -0.7400 -0.2890 0.6073
vn -0.2254 0.9565 0.1850
vn -0.7693 -0.0975 0.6314
vn -0.0761 -0.9951 0.0625
vn -0.0761 0.9951 0.0625
vn -0.7693 0.0975 0.6314
vn -0.2254 -0.9565 0.1850
vn -0.7400 0.2890 0.6073
vn -0.3658 -0.8810 0.3002
vn -0.6825 0.4696 0.5601
vn -0.4918 -0.7715 0.4036
vn -0.5987 0.6326 0.4913
vn -0.5987 -0.6326 0.4913
vn -0.4918 0.7715 0.4036
vn -0.6825 -0.4696 0.5601
vn -0.3002 -0.8810 0.3658
vn -0.5601 0.4696 0.6825
vn -0.4036 -0.7715 0.4918
vn -0.4913 0.6326 0.5987
vn -0.4913 -0.6326 0.5987
vn -0.4036 0.7715 0.4918
vn -0.5601 -0.4696 0.6825
vn -0.3002 0.8810 0.3658
vn -0.6073 -0.2890 0.7400
vn -0.1850 0.9565 0.2254
vn -0.6314 -0.0975 0.7693
vn -0.0625 -0.9951 0.0761
vn -0.0625 0.9951 0.0761
vn -0.6314 0.0975 0.7693
vn -0.1850 -0.9565 0.2254
vn -0.6073 0.2890 0.7400
vn -0.4513 -0.2890 0.8443
vn -0.1374 0.9565 0.2571
vn -0.4691 -0.0975 0.8777
vn -0.0464 -0.9951 0.0869
vn -0.0464 0.9951 0.0869
vn -0.4691 0.0975 0.8777
vn -0.1374 -0.9565 0.2571
vn -0.4513 0.2890 0.8443
vn -0.2230 -0.8810 0.4173
vn -0.4162 0.4696 0.7786
vn -0.2999 -0.7715 0.5611
vn -0.3651 0.6326 0.6831
vn -0.3651 -0.6326 0.6831
vn -0.2999 0.7715 0.5611
vn -0.4162 -0.4696 0.7786
vn -0.2230 0.8810 0.4173
vn -0.2563 0.4696 0.8448
vn -0.1847 -0.7715 0.6088
vn -0.2248 0.6326 0.7412
vn -0.2248 -0.6326 0.7412
vn -0.1847 0.7715 0.6088
vn -0.2563 -0.4696 0.8448
vn -0.1374 0.8810 0.4528
vn -0.2779 -0.2890 0.9161
vn -0.0846 0.9565 0.2790
vn -0.2889 -0.0975 0.9524
vn -0.0286 -0.9951 0.0942
vn -0.0286 0.9951 0.0942
vn -0.2889 0.0975 0.9524
vn -0.0846 -0.9565 0.2790
vn -0.2779 0.2890 0.9161
vn -0.1374 -0.8810 0.4528
vn -0.0286 0.9565 0.2902
vn -0.0975 -0.0975 0.9904
vn -0.0097 -0.9951 0.0980
vn -0.0097 0.9951 0.0980
vn -0.0975 0.0975 0.9904
vn -0.0286 -0.9565 0.2902
vn -0.0938 0.2890 0.9527
vn -0.0464 -0.8810 0.4709
vn -0.0865 0.4696 0.8786
vn -0.0624 -0.7715 0.6332
vn -0.0759 0.6326 0.7708
vn -0.0759 -0.6326 0.7708
vn -0.0624 0.7715 0.6332
vn -0.0865 -0.4696 0.8786
vn -0.0464 0.8810 0.4709
vn -0.0938 -0.2890 0.9527
vn 0.0624 -0.7715 0.6332
vn 0.0759 0.6326 0.7708
vn 0.0759 -0.6326 0.7708
vn 0.0624 0.7715 0.6332
vn 0.0865 -0.4696 0.8786
vn 0.0464 0.8810 0.4709
vn 0.0938 -0.2890 0.9527
vn 0.0286 0.9565 0.2902
vn 0.0975 -0.0975 0.9904
vn 0.0097 -0.9951 0.0980
vn 0.0097 0.9951 0.0980
vn 0.0975 0.0975 0.9904
vn 0.0286 -0.9565 0.2902
vn 0.0938 0.2890 0.9527
vn 0.0464 -0.8810 0.4709
vn 0.0865 0.4696 0.8786
vn 0.2889 -0.0975 0.9524
vn 0.0286 -0.9951 0.0942
vn 0.0286 0.9951 0.0942
vn 0.2889 0.0975 0.9524
vn 0.0846 -0.9565 0.2790
vn 0.2779 0.2890 0.9161
vn 0.1374 -0.8810 0.4528
vn 0.2563 0.4696 0.8448
vn 0.1847 -0.7715 0.6088
vn 0.2248 0.6326 0.7412
vn 0.2248 -0.6326 0.7412
vn 0.1847 0.7715 0.6088
vn 0.2563 -0.4696 0.8448
vn 0.1374 0.8810 0.4528
vn 0.2779 -0.2890 0.9161
vn 0.0846 0.9565 0.2790
vn 0.3651 0.6326 0.6831
vn 0.3651 -0.6326 0.6831
vn 0.2999 0.7715 0.5611
vn 0.4162 -0.4696 0.7786
vn 0.2230 0.8810 0.4173
vn 0.4513 -0.2890 0.8443
vn 0.1374 0.9565 0.2571
vn 0.4691 -0.0975 0.8777
vn 0.0464 -0.9951 0.0869
vn 0.0464 0.9951 0.0869
vn 0.4691 0.0975 0.8777
vn 0.1374 -0.9565 0.2571
vn 0.4513 0.2890 0.8443
vn 0.2230 -0.8810 0.4173
vn 0.4162 0.4696 0.7786
vn 0.2999 -0.7715 0.5611
vn 0.0625 0.9951 0.0761
vn 0.6314 0.0975 0.7693
vn 0.1850 -0.9565 0.2254
vn 0.6073 0.2890 0.7400
vn 0.3002 -0.8810 0.3658
vn 0.5601 0.4696 0.6825
vn 0.4036 -0.7715 0.4918
vn 0.4913 0.6326 0.5987
vn 0.4913 -0.6326 0.5987
vn 0.4036 0.7715 0.4918
vn 0.5601 -0.4696 0.6825
vn 0.3002 0.8810 0.3658
vn 0.6073 -0.2890 0.7400
vn 0.1850 0.9565 0.2254
vn 0.6314 -0.0975 0.7693
vn 0.0625 -0.9951 0.0761
vn 0.4918 0.7715 0.4036
vn 0.6825 -0.4696 0.5601
vn 0.3658 0.8810 0.3002
vn 0.7400 -0.2890 0.6073
vn 0.2254 0.9565 0.1850
vn 0.7693 -0.0975 0.6314
vn 0.0761 -0.9951 0.0625
vn 0.0761 0.9951 0.0625
vn 0.7693 0.0975 0.6314
vn 0.2254 -0.9566 0.1850
vn 0.7400 0.2890 0.6073
vn 0.3658 -0.8810 0.3002
vn 0.6825 0.4696 0.5601
vn 0.4918 -0.7715 0.4036
vn 0.5987 0.6326 0.4913
vn 0.5987 -0.6326 0.4913
vn 0.2571 -0.9565 0.1374
vn 0.8443 0.2890 0.4513
vn 0.4173 -0.8810 0.2230
vn 0.7786 0.4696 0.4162
vn 0.5611 -0.7715 0.2999
vn 0.6831 0.6326 0.3651
vn 0.6831 -0.6326 0.3651
vn 0.5611 0.7715 0.2999
vn 0.7786 -0.4696 0.4162
vn 0.4173 0.8810 0.2231
vn 0.8443 -0.2890 0.4513
vn 0.2571 0.9565 0.1374
vn 0.8777 -0.0975 0.4691
vn 0.0869 -0.9951 0.0464
vn 0.0869 0.9951 0.0464
vn 0.8777 0.0975 0.4691
vn 0.8448 -0.4696 0.2563
vn 0.4528 0.8810 0.1374
vn 0.9161 -0.2890 0.2779
vn 0.2790 0.9565 0.0846
vn 0.9524 -0.0975 0.2889
vn 0.0942 -0.9951 0.0286
vn 0.0942 0.9951 0.0286
vn 0.9524 0.0975 0.2889
vn 0.2790 -0.9565 0.0846
vn 0.9161 0.2890 0.2779
vn 0.4528 -0.8810 0.1374
vn 0.8448 0.4696 0.2563
vn 0.6088 -0.7715 0.1847
vn 0.7412 0.6326 0.2248
vn 0.7412 -0.6326 0.2248
vn 0.6088 0.7715 0.1847
vn 0.9527 0.2890 0.0938
vn 0.4709 -0.8810 0.0464
vn 0.8786 0.4696 0.0865
vn 0.6332 -0.7715 0.0624
vn 0.7708 0.6326 0.0759
vn 0.7708 -0.6326 0.0759
vn 0.6332 0.7715 0.0624
vn 0.8786 -0.4696 0.0865
vn 0.4709 0.8810 0.0464
vn 0.9527 -0.2890 0.0938
vn 0.2902 0.9565 0.0286
vn 0.9904 -0.0975 0.0976
vn 0.0980 -0.9951 0.0097
vn 0.0980 0.9951 0.0097
vn 0.9904 0.0975 0.0976
vn 0.2902 -0.9565 0.0286
vn 0.4709 0.8810 -0.0464
vn 0.9527 -0.2890 -0.0938
vn 0.2902 0.9565 -0.0286
vn 0.9904 -0.0975 -0.0976
vn 0.0980 -0.9951 -0.0097
vn 0.0980 0.9951 -0.0097
vn 0.9904 0.0975 -0.0976
vn 0.2902 -0.9565 -0.0286
vn 0.9527 0.2890 -0.0938
vn 0.4709 -0.8810 -0.0464
vn 0.8786 0.4696 -0.0865
vn 0.6332 -0.7715 -0.0624
vn 0.7708 0.6326 -0.0759
vn 0.7708 -0.6326 -0.0759
vn 0.6332 0.7715 -0.0624
vn 0.8786 -0.4696 -0.0865
vn 0.4528 -0.8810 -0.1374
vn 0.8448 0.4696 -0.2563
vn 0.6088 -0.7715 -0.1847
vn 0.7412 0.6326 -0.2248
vn 0.7412 -0.6326 -0.2248
vn 0.6088 0.7715 -0.1847
vn 0.8448 -0.4696 -0.2563
vn 0.4528 0.8810 -0.1374
vn 0.9161 -0.2890 -0.2779
vn 0.2790 0.9565 -0.0846
vn 0.9524 -0.0975 -0.2889
vn 0.0942 -0.9951 -0.0286
vn 0.0942 0.9951 -0.0286
vn 0.9524 0.0975 -0.2889
vn 0.2790 -0.9565 -0.0846
vn 0.9161 0.2890 -0.2779
vn 0.8443 -0.2890 -0.4513
vn 0.2571 0.9565 -0.1374
vn 0.8777 -0.0975 -0.4691
vn 0.0869 -0.9951 -0.0464
vn 0.0869 0.9951 -0.0464
vn 0.8777 0.0975 -0.4691
vn 0.2571 -0.9565 -0.1374
vn 0.8443 0.2890 -0.4513
vn 0.4173 -0.8810 -0.2231
vn 0.7786 0.4696 -0.4162
vn 0.5611 -0.7715 -0.2999
vn 0.6831 0.6326 -0.3651
vn 0.6831 -0.6326 -0.3651
vn 0.5611 0.7715 -0.2999
vn 0.7786 -0.4696 -0.4162
vn 0.4173 0.8810 -0.2231
vn 0.6825 0.4696 -0.5601
vn 0.4918 -0.7715 -0.4036
vn 0.5987 0.6326 -0.4913
vn 0.5987 -0.6326 -0.4913
vn 0.4918 0.7715 -0.4036
vn 0.6825 -0.4696 -0.5601
vn 0.3658 0.8810 -0.3002
vn 0.7400 -0.2890 -0.6073
vn 0.2254 0.9565 -0.1850
vn 0.7693 -0.0975 -0.6314
vn 0.0761 -0.9951 -0.0625
vn 0.0761 0.9951 -0.0625
vn 0.7693 0.0975 -0.6314
vn 0.2254 -0.9565 -0.1850
vn 0.7400 0.2890 -0.6073
vn 0.3658 -0.8810 -0.3002
vn 0.1850 0.9565 -0.2254
vn 0.6314 -0.0975 -0.7693
vn 0.0625 -0.9951 -0.0761
vn 0.0625 0.9951 -0.0761
vn 0.6314 0.0975 -0.7693
vn 0.1850 -0.9565 -0.2254
vn 0.6073 0.2890 -0.7400
vn 0.3002 -0.8810 -0.3658
vn 0.5601 0.4696 -0.6825
vn 0.4036 -0.7715 -0.4918
vn 0.4913 0.6326 -0.5987
vn 0.4913 -0.6326 -0.5987
vn 0.4036 0.7715 -0.4918
vn 0.5601 -0.4696 -0.6825
vn 0.3002 0.8810 -0.3658
vn 0.6073 -0.2890 -0.7400
vn 0.3651 0.6326 -0.6831
vn 0.3651 -0.6326 -0.6831
vn 0.2999 0.7715 -0.5611
vn 0.4162 -0.4696 -0.7786
vn 0.2230 0.8810 -0.4173
vn 0.4513 -0.2890 -0.8443
vn 0.1374 0.9565 -0.2571
vn 0.4691 -0.0975 -0.8777
vn 0.0464 -0.9951 -0.0869
vn 0.0464 0.9951 -0.0869
vn 0.4691 0.0975 -0.8777
vn 0.1374 -0.9565 -0.2571
vn 0.4513 0.2890 -0.8443
vn 0.2230 -0.8810 -0.4173
vn 0.4162 0.4696 -0.7786
vn 0.2999 -0.7715 -0.5611
vn 0.0286 -0.9951 -0.0942
vn 0.0286 0.9951 -0.0942
vn 0.2889 0.0975 -0.9524
vn 0.0846 -0.9565 -0.2790
vn 0.2779 0.2890 -0.9161
vn 0.1374 -0.8810 -0.4528
vn 0.2563 0.4696 -0.8448
vn 0.1847 -0.7715 -0.6088
vn 0.2248 0.6326 -0.7412
vn 0.2248 -0.6326 -0.7412
vn 0.1847 0.7715 -0.6088
vn 0.2563 -0.4696 -0.8448
vn 0.1374 0.8810 -0.4528
vn 0.2779 -0.2890 -0.9161
vn 0.0846 0.9565 -0.2790
vn 0.2889 -0.0975 -0.9524
vn 0.0759 -0.6326 -0.7708
vn 0.0624 0.7715 -0.6332
vn 0.0865 -0.4696 -0.8786
vn 0.0464 0.8810 -0.4709
vn 0.0938 -0.2890 -0.9527
vn 0.0286 0.9565 -0.2902
vn 0.0976 -0.0975 -0.9904
vn 0.0097 -0.9951 -0.0980
vn 0.0097 0.9951 -0.0980
vn 0.0976 0.0975 -0.9904
vn 0.0286 -0.9565 -0.2902
vn 0.0938 0.2890 -0.9527
vn 0.0464 -0.8810 -0.4709
vn 0.0865 0.4696 -0.8786
vn 0.0624 -0.7715 -0.6332
vn 0.0759 0.6326 -0.7708
vn -0.0975 -0.0976 -0.9904
vn -0.0975 0.0975 -0.9904
vn -0.2889 0.0976 -0.9524
vn -0.2230 -0.8810 -0.4173
vn -0.2230 0.8810 -0.4173
vn -0.2254 -0.9565 -0.1850
vn -0.2571 0.9566 0.1374
vn -0.2254 -0.9566 0.1850
vn 0.0976 -0.0975 0.9904
vn 0.0976 0.0975 0.9904
vn 0.2231 0.8810 0.4173
vn 0.2231 -0.8810 0.4173
vn 0.2254 -0.9565 0.1850
vn 0.4173 0.8810 0.2230
vn 0.9904 -0.0975 0.0975
vn 0.9904 0.0975 0.0975
vn 0.9904 -0.0975 -0.0975
vn 0.9904 0.0975 -0.0975
vt 0.750000 0.250000
vt 0.718750 0.312500
vt 0.750000 0.312500
vt 0.718750 0.687500
vt 0.750000 0.750000
vt 0.750000 0.687500
vt 0.718750 0.187500
vt 0.750000 0.187500
vt 0.750000 0.625000
vt 0.718750 0.125000
vt 0.750000 0.125000
vt 0.750000 0.562500
vt 0.718750 0.625000
vt 0.718750 0.062500
vt 0.750000 0.062500
vt 0.718750 0.500000
vt 0.750000 0.500000
vt 0.750000 0.937500
vt 0.718750 0.937500
vt 0.734375 1.000000
vt 0.734375 0.000000
vt 0.718750 0.437500
vt 0.750000 0.437500
vt 0.750000 0.875000
vt 0.718750 0.375000
vt 0.750000 0.375000
vt 0.750000 0.812500
vt 0.718750 0.875000
vt 0.718750 0.812500
vt 0.687500 0.375000
vt 0.687500 0.750000
vt 0.718750 0.750000
vt 0.718750 0.250000
vt 0.687500 0.312500
vt 0.687500 0.687500
vt 0.687500 0.250000
vt 0.687500 0.625000
vt 0.687500 0.187500
vt 0.718750 0.562500
vt 0.687500 0.062500
vt 0.687500 0.500000
vt 0.687500 0.937500
vt 0.703125 1.000000
vt 0.703125 0.000000
vt 0.687500 0.437500
vt 0.687500 0.875000
vt 0.687500 0.812500
vt 0.656250 0.125000
vt 0.687500 0.125000
vt 0.656250 0.562500
vt 0.687500 0.562500
vt 0.656250 0.937500
vt 0.671875 1.000000
vt 0.671875 0.000000
vt 0.656250 0.062500
vt 0.656250 0.437500
vt 0.656250 0.875000
vt 0.656250 0.375000
vt 0.656250 0.812500
vt 0.656250 0.750000
vt 0.656250 0.312500
vt 0.656250 0.687500
vt 0.656250 0.250000
vt 0.656250 0.625000
vt 0.656250 0.187500
vt 0.625000 0.750000
vt 0.625000 0.250000
vt 0.625000 0.625000
vt 0.625000 0.187500
vt 0.625000 0.125000
vt 0.656250 0.500000
vt 0.625000 0.562500
vt 0.625000 0.937500
vt 0.640625 1.000000
vt 0.640625 0.000000
vt 0.625000 0.062500
vt 0.625000 0.437500
vt 0.625000 0.875000
vt 0.625000 0.375000
vt 0.625000 0.812500
vt 0.625000 0.500000
vt 0.593750 0.562500
vt 0.593750 0.937500
vt 0.609375 1.000000
vt 0.609375 0.000000
vt 0.593750 0.062500
vt 0.593750 0.437500
vt 0.593750 0.375000
vt 0.593750 0.875000
vt 0.625000 0.312500
vt 0.593750 0.750000
vt 0.593750 0.250000
vt 0.625000 0.687500
vt 0.593750 0.625000
vt 0.593750 0.125000
vt 0.562500 0.250000
vt 0.593750 0.312500
vt 0.593750 0.687500
vt 0.562500 0.750000
vt 0.593750 0.187500
vt 0.562500 0.625000
vt 0.562500 0.187500
vt 0.562500 0.125000
vt 0.593750 0.500000
vt 0.562500 0.562500
vt 0.562500 0.937500
vt 0.578125 1.000000
vt 0.578125 0.000000
vt 0.562500 0.062500
vt 0.562500 0.437500
vt 0.562500 0.875000
vt 0.562500 0.375000
vt 0.562500 0.812500
vt 0.593750 0.812500
vt 0.531250 0.937500
vt 0.546875 1.000000
vt 0.546875 0.000000
vt 0.531250 0.062500
vt 0.531250 0.437500
vt 0.562500 0.500000
vt 0.531250 0.875000
vt 0.531250 0.375000
vt 0.562500 0.312500
vt 0.531250 0.750000
vt 0.531250 0.250000
vt 0.562500 0.687500
vt 0.531250 0.625000
vt 0.531250 0.125000
vt 0.531250 0.562500
vt 0.531250 0.687500
vt 0.500000 0.750000
vt 0.531250 0.187500
vt 0.500000 0.250000
vt 0.500000 0.625000
vt 0.500000 0.187500
vt 0.500000 0.062500
vt 0.531250 0.500000
vt 0.500000 0.562500
vt 0.500000 0.937500
vt 0.515625 1.000000
vt 0.515625 0.000000
vt 0.500000 0.437500
vt 0.500000 0.875000
vt 0.500000 0.375000
vt 0.500000 0.812500
vt 0.531250 0.812500
vt 0.531250 0.312500
vt 0.468750 0.437500
vt 0.500000 0.500000
vt 0.468750 0.937500
vt 0.468750 0.375000
vt 0.468750 0.875000
vt 0.500000 0.312500
vt 0.468750 0.750000
vt 0.468750 0.250000
vt 0.500000 0.687500
vt 0.468750 0.625000
vt 0.468750 0.125000
vt 0.500000 0.125000
vt 0.468750 0.062500
vt 0.468750 0.562500
vt 0.484375 1.000000
vt 0.484375 0.000000
vt 0.468750 0.187500
vt 0.437500 0.250000
vt 0.437500 0.625000
vt 0.468750 0.687500
vt 0.437500 0.187500
vt 0.437500 0.062500
vt 0.468750 0.500000
vt 0.437500 0.562500
vt 0.437500 0.937500
vt 0.453125 1.000000
vt 0.453125 0.000000
vt 0.437500 0.437500
vt 0.437500 0.875000
vt 0.437500 0.375000
vt 0.437500 0.812500
vt 0.468750 0.812500
vt 0.468750 0.312500
vt 0.437500 0.750000
vt 0.406250 0.375000
vt 0.406250 0.812500
vt 0.437500 0.312500
vt 0.406250 0.750000
vt 0.406250 0.250000
vt 0.437500 0.687500
vt 0.406250 0.625000
vt 0.437500 0.125000
vt 0.406250 0.187500
vt 0.406250 0.125000
vt 0.437500 0.500000
vt 0.406250 0.562500
vt 0.406250 0.937500
vt 0.421875 1.000000
vt 0.421875 0.000000
vt 0.406250 0.062500
vt 0.406250 0.437500
vt 0.406250 0.875000
vt 0.375000 0.187500
vt 0.375000 0.625000
vt 0.375000 0.125000
vt 0.406250 0.500000
vt 0.375000 0.562500
vt 0.375000 0.937500
vt 0.390625 1.000000
vt 0.390625 0.000000
vt 0.375000 0.062500
vt 0.375000 0.437500
vt 0.375000 0.875000
vt 0.375000 0.375000
vt 0.375000 0.812500
vt 0.406250 0.312500
vt 0.375000 0.750000
vt 0.375000 0.250000
vt 0.406250 0.687500
vt 0.343750 0.875000
vt 0.375000 0.312500
vt 0.343750 0.375000
vt 0.343750 0.750000
vt 0.343750 0.250000
vt 0.375000 0.687500
vt 0.343750 0.625000
vt 0.343750 0.125000
vt 0.343750 0.062500
vt 0.375000 0.500000
vt 0.343750 0.562500
vt 0.343750 0.937500
vt 0.359375 1.000000
vt 0.359375 0.000000
vt 0.343750 0.437500
vt 0.312500 0.625000
vt 0.312500 0.125000
vt 0.343750 0.500000
vt 0.312500 0.562500
vt 0.312500 0.937500
vt 0.328125 1.000000
vt 0.328125 0.000000
vt 0.312500 0.062500
vt 0.312500 0.437500
vt 0.312500 0.875000
vt 0.312500 0.375000
vt 0.312500 0.812500
vt 0.343750 0.812500
vt 0.343750 0.312500
vt 0.312500 0.750000
vt 0.312500 0.250000
vt 0.343750 0.687500
vt 0.343750 0.187500
vt 0.312500 0.187500
vt 0.312500 0.312500
vt 0.281250 0.375000
vt 0.281250 0.750000
vt 0.281250 0.250000
vt 0.312500 0.687500
vt 0.281250 0.625000
vt 0.281250 0.187500
vt 0.281250 0.125000
vt 0.312500 0.500000
vt 0.281250 0.562500
vt 0.281250 0.937500
vt 0.296875 1.000000
vt 0.296875 0.000000
vt 0.281250 0.062500
vt 0.281250 0.437500
vt 0.281250 0.875000
vt 0.281250 0.812500
vt 0.250000 0.062500
vt 0.281250 0.500000
vt 0.250000 0.562500
vt 0.250000 0.937500
vt 0.265625 1.000000
vt 0.265625 0.000000
vt 0.250000 0.437500
vt 0.250000 0.375000
vt 0.250000 0.812500
vt 0.281250 0.312500
vt 0.250000 0.750000
vt 0.250000 0.250000
vt 0.281250 0.687500
vt 0.250000 0.625000
vt 0.250000 0.187500
vt 0.218750 0.750000
vt 0.218750 0.250000
vt 0.250000 0.312500
vt 0.250000 0.687500
vt 0.218750 0.625000
vt 0.218750 0.125000
vt 0.250000 0.125000
vt 0.218750 0.062500
vt 0.250000 0.500000
vt 0.218750 0.562500
vt 0.218750 0.937500
vt 0.234375 1.000000
vt 0.234375 0.000000
vt 0.218750 0.437500
vt 0.250000 0.875000
vt 0.218750 0.375000
vt 0.218750 0.875000
vt 0.218750 0.500000
vt 0.187500 0.562500
vt 0.187500 0.937500
vt 0.203125 1.000000
vt 0.203125 0.000000
vt 0.187500 0.062500
vt 0.187500 0.437500
vt 0.187500 0.375000
vt 0.187500 0.812500
vt 0.218750 0.812500
vt 0.218750 0.312500
vt 0.187500 0.750000
vt 0.187500 0.250000
vt 0.218750 0.687500
vt 0.218750 0.187500
vt 0.187500 0.625000
vt 0.187500 0.187500
vt 0.156250 0.250000
vt 0.187500 0.312500
vt 0.187500 0.687500
vt 0.156250 0.750000
vt 0.156250 0.625000
vt 0.156250 0.125000
vt 0.187500 0.125000
vt 0.156250 0.062500
vt 0.187500 0.500000
vt 0.156250 0.562500
vt 0.156250 0.937500
vt 0.171875 1.000000
vt 0.171875 0.000000
vt 0.156250 0.437500
vt 0.156250 0.875000
vt 0.187500 0.875000
vt 0.156250 0.375000
vt 0.156250 0.812500
vt 0.140625 0.000000
vt 0.125000 0.062500
vt 0.125000 0.437500
vt 0.156250 0.500000
vt 0.125000 0.875000
vt 0.125000 0.375000
vt 0.156250 0.312500
vt 0.125000 0.750000
vt 0.125000 0.250000
vt 0.156250 0.687500
vt 0.156250 0.187500
vt 0.125000 0.625000
vt 0.125000 0.125000
vt 0.125000 0.562500
vt 0.125000 0.937500
vt 0.140625 1.000000
vt 0.125000 0.187500
vt 0.093750 0.250000
vt 0.093750 0.625000
vt 0.125000 0.687500
vt 0.093750 0.125000
vt 0.093750 0.062500
vt 0.125000 0.500000
vt 0.093750 0.562500
vt 0.093750 0.937500
vt 0.109375 1.000000
vt 0.109375 0.000000
vt 0.093750 0.437500
vt 0.093750 0.375000
vt 0.125000 0.812500
vt 0.093750 0.875000
vt 0.125000 0.312500
vt 0.093750 0.750000
vt 0.062500 0.875000
vt 0.062500 0.375000
vt 0.062500 0.812500
vt 0.093750 0.812500
vt 0.093750 0.312500
vt 0.062500 0.750000
vt 0.062500 0.250000
vt 0.093750 0.687500
vt 0.093750 0.187500
vt 0.062500 0.625000
vt 0.062500 0.125000
vt 0.093750 0.500000
vt 0.062500 0.562500
vt 0.062500 0.937500
vt 0.078125 1.000000
vt 0.078125 0.000000
vt 0.062500 0.062500
vt 0.062500 0.437500
vt 0.031250 0.625000
vt 0.062500 0.687500
vt 0.031250 0.125000
vt 0.062500 0.187500
vt 0.062500 0.500000
vt 0.031250 0.562500
vt 0.031250 0.937500
vt 0.046875 1.000000
vt 0.046875 0.000000
vt 0.031250 0.062500
vt 0.031250 0.437500
vt 0.031250 0.875000
vt 0.031250 0.375000
vt 0.062500 0.312500
vt 0.031250 0.750000
vt 0.031250 0.250000
vt 0.000000 0.375000
vt 0.031250 0.812500
vt 0.000000 0.875000
vt 0.031250 0.312500
vt 0.000000 0.750000
vt 0.000000 0.250000
vt 0.031250 0.687500
vt 0.031250 0.187500
vt 0.000000 0.625000
vt 0.000000 0.125000
vt 0.031250 0.500000
vt 0.000000 0.562500
vt 0.000000 0.937500
vt 0.015625 1.000000
vt 0.015625 0.000000
vt 0.000000 0.062500
vt 0.000000 0.437500
vt 0.968750 0.125000
vt 1.000000 0.187500
vt 1.000000 0.125000
vt 1.000000 0.562500
vt 0.968750 0.625000
vt 1.000000 0.625000
vt 0.968750 0.062500
vt 1.000000 0.062500
vt 1.000000 0.500000
vt 0.968750 0.562500
vt 1.000000 0.937500
vt 0.968750 0.937500
vt 0.984375 1.000000
vt 0.984375 0.000000
vt 0.968750 0.437500
vt 1.000000 0.437500
vt 1.000000 0.875000
vt 0.968750 0.375000
vt 1.000000 0.375000
vt 1.000000 0.812500
vt 0.968750 0.875000
vt 1.000000 0.312500
vt 0.968750 0.750000
vt 1.000000 0.750000
vt 0.968750 0.250000
vt 1.000000 0.250000
vt 1.000000 0.687500
vt 0.968750 0.812500
vt 0.937500 0.875000
vt 0.968750 0.312500
vt 0.937500 0.375000
vt 0.937500 0.750000
vt 0.937500 0.250000
vt 0.968750 0.687500
vt 0.968750 0.187500
vt 0.937500 0.625000
vt 0.937500 0.125000
vt 0.937500 0.062500
vt 0.968750 0.500000
vt 0.937500 0.562500
vt 0.937500 0.937500
vt 0.953125 1.000000
vt 0.953125 0.000000
vt 0.937500 0.437500
vt 0.906250 0.625000
vt 0.906250 0.125000
vt 0.937500 0.500000
vt 0.906250 0.562500
vt 0.906250 0.937500
vt 0.921875 1.000000
vt 0.921875 0.000000
vt 0.906250 0.062500
vt 0.906250 0.437500
vt 0.906250 0.875000
vt 0.906250 0.375000
vt 0.937500 0.812500
vt 0.937500 0.312500
vt 0.906250 0.750000
vt 0.906250 0.250000
vt 0.937500 0.687500
vt 0.937500 0.187500
vt 0.906250 0.312500
vt 0.875000 0.375000
vt 0.875000 0.750000
vt 0.906250 0.812500
vt 0.875000 0.250000
vt 0.906250 0.687500
vt 0.906250 0.187500
vt 0.875000 0.625000
vt 0.875000 0.125000
vt 0.875000 0.062500
vt 0.906250 0.500000
vt 0.875000 0.562500
vt 0.875000 0.937500
vt 0.890625 1.000000
vt 0.890625 0.000000
vt 0.875000 0.437500
vt 0.875000 0.875000
vt 0.843750 0.125000
vt 0.875000 0.500000
vt 0.843750 0.562500
vt 0.843750 0.937500
vt 0.859375 1.000000
vt 0.859375 0.000000
vt 0.843750 0.062500
vt 0.843750 0.437500
vt 0.843750 0.875000
vt 0.843750 0.375000
vt 0.875000 0.812500
vt 0.875000 0.312500
vt 0.843750 0.750000
vt 0.843750 0.250000
vt 0.875000 0.687500
vt 0.875000 0.187500
vt 0.843750 0.625000
vt 0.812500 0.250000
vt 0.843750 0.312500
vt 0.843750 0.687500
vt 0.812500 0.750000
vt 0.843750 0.187500
vt 0.812500 0.625000
vt 0.812500 0.125000
vt 0.812500 0.062500
vt 0.843750 0.500000
vt 0.812500 0.562500
vt 0.812500 0.937500
vt 0.828125 1.000000
vt 0.828125 0.000000
vt 0.812500 0.437500
vt 0.812500 0.375000
vt 0.843750 0.812500
vt 0.812500 0.875000
vt 0.781250 0.937500
vt 0.796875 1.000000
vt 0.796875 0.000000
vt 0.781250 0.062500
vt 0.781250 0.437500
vt 0.812500 0.500000
vt 0.781250 0.875000
vt 0.781250 0.375000
vt 0.812500 0.812500
vt 0.812500 0.312500
vt 0.781250 0.750000
vt 0.781250 0.250000
vt 0.812500 0.687500
vt 0.812500 0.187500
vt 0.781250 0.625000
vt 0.781250 0.125000
vt 0.781250 0.562500
vt 0.781250 0.687500
vt 0.781250 0.187500
vt 0.781250 0.500000
vt 0.765625 1.000000
vt 0.765625 0.000000
vt 0.781250 0.812500
vt 0.781250 0.312500
vt 0.000000 0.812500
vt 0.000000 0.312500
vt 0.000000 0.687500
vt 0.000000 0.187500
vt 0.000000 0.500000
s 0
usemtl マテリアル
f 479/1/1 6/3/1 17/2/1
f 11/4/2 2/6/2 476/5/2
f 19/7/3 480/8/3 479/1/3
f 477/9/4 2/6/4 11/4/4
f 20/10/5 481/11/5 480/8/5
f 3/12/6 477/9/6 12/13/6
f 21/14/7 482/15/7 481/11/7
f 14/16/8 4/17/8 3/12/8
f 474/18/9 82/20/9 7/19/9
f 308/21/10 482/15/10 21/14/10
f 15/22/11 5/23/11 4/17/11
f 475/24/12 474/18/12 7/19/12
f 16/25/13 478/26/13 5/23/13
f 1/27/14 475/24/14 8/28/14
f 17/2/15 6/3/15 478/26/15
f 476/5/16 1/27/16 9/29/16
f 17/2/17 16/25/17 31/30/17
f 25/31/18 10/32/18 9/29/18
f 18/33/19 17/2/19 32/34/19
f 26/35/20 11/4/20 10/32/20
f 19/7/21 18/33/21 33/36/21
f 27/37/22 12/13/22 11/4/22
f 20/10/23 19/7/23 34/38/23
f 13/39/24 12/13/24 27/37/24
f 36/40/25 21/14/25 20/10/25
f 29/41/26 14/16/26 13/39/26
f 7/19/27 82/43/27 22/42/27
f 308/44/28 21/14/28 36/40/28
f 30/45/29 15/22/29 14/16/29
f 23/46/30 8/28/30 7/19/30
f 31/30/31 16/25/31 15/22/31
f 24/47/32 9/29/32 8/28/32
f 36/40/33 35/49/33 50/48/33
f 29/41/34 28/51/34 43/50/34
f 22/42/35 82/53/35 37/52/35
f 308/54/36 36/40/36 51/55/36
f 45/56/37 30/45/37 29/41/37
f 38/57/38 23/46/38 22/42/38
f 46/58/39 31/30/39 30/45/39
f 39/59/40 24/47/40 23/46/40
f 32/34/41 31/30/41 46/58/41
f 40/60/42 25/31/42 24/47/42
f 33/36/43 32/34/43 47/61/43
f 41/62/44 26/35/44 25/31/44
f 34/38/45 33/36/45 48/63/45
f 42/64/46 27/37/46 26/35/46
f 35/49/47 34/38/47 49/65/47
f 28/51/48 27/37/48 42/64/48
f 55/66/49 40/60/49 39/59/49
f 63/67/50 48/63/50 47/61/50
f 41/62/51 40/60/51 55/66/51
f 49/65/52 48/63/52 63/67/52
f 57/68/53 42/64/53 41/62/53
f 50/48/54 49/65/54 64/69/54
f 43/50/55 42/64/55 57/68/55
f 51/55/56 50/48/56 65/70/56
f 44/71/57 43/50/57 58/72/57
f 37/52/58 82/74/58 52/73/58
f 308/75/59 51/55/59 66/76/59
f 60/77/60 45/56/60 44/71/60
f 53/78/61 38/57/61 37/52/61
f 61/79/62 46/58/62 45/56/62
f 54/80/63 39/59/63 38/57/63
f 47/61/64 46/58/64 61/79/64
f 59/81/65 58/72/65 73/82/65
f 52/73/66 82/84/66 67/83/66
f 308/85/67 66/76/67 81/86/67
f 75/87/68 60/77/68 59/81/68
f 53/78/69 52/73/69 67/83/69
f 76/88/70 61/79/70 60/77/70
f 54/80/71 53/78/71 68/89/71
f 62/90/72 61/79/72 76/88/72
f 70/91/73 55/66/73 54/80/73
f 78/92/74 63/67/74 62/90/74
f 56/93/75 55/66/75 70/91/75
f 64/69/76 63/67/76 78/92/76
f 72/94/77 57/68/77 56/93/77
f 80/95/78 65/70/78 64/69/78
f 58/72/79 57/68/79 72/94/79
f 81/86/80 66/76/80 65/70/80
f 94/96/81 78/92/81 77/97/81
f 71/98/82 70/91/82 86/99/82
f 79/100/83 78/92/83 94/96/83
f 88/101/84 72/94/84 71/98/84
f 80/95/85 79/100/85 95/102/85
f 73/82/86 72/94/86 88/101/86
f 81/86/87 80/95/87 96/103/87
f 74/104/88 73/82/88 89/105/88
f 67/83/89 82/107/89 83/106/89
f 308/108/90 81/86/90 97/109/90
f 91/110/91 75/87/91 74/104/91
f 84/111/92 68/89/92 67/83/92
f 92/112/93 76/88/93 75/87/93
f 85/113/94 69/114/94 68/89/94
f 77/97/95 76/88/95 92/112/95
f 86/99/96 70/91/96 69/114/96
f 83/106/97 82/116/97 98/115/97
f 308/117/98 97/109/98 112/118/98
f 106/119/99 91/110/99 90/120/99
f 99/121/100 84/111/100 83/106/100
f 107/122/101 92/112/101 91/110/101
f 85/113/102 84/111/102 99/121/102
f 93/123/103 92/112/103 107/122/103
f 101/124/104 86/99/104 85/113/104
f 109/125/105 94/96/105 93/123/105
f 87/126/106 86/99/106 101/124/106
f 95/102/107 94/96/107 109/125/107
f 103/127/108 88/101/108 87/126/108
f 111/128/109 96/103/109 95/102/109
f 89/105/110 88/101/110 103/127/110
f 112/118/111 97/109/111 96/103/111
f 90/120/112 89/105/112 104/129/112
f 102/130/113 101/124/113 116/131/113
f 110/132/114 109/125/114 124/133/114
f 118/134/115 103/127/115 102/130/115
f 111/128/116 110/132/116 125/135/116
f 104/129/117 103/127/117 118/134/117
f 127/136/118 112/118/118 111/128/118
f 105/137/119 104/129/119 119/138/119
f 98/115/120 82/140/120 113/139/120
f 308/141/121 112/118/121 127/136/121
f 121/142/122 106/119/122 105/137/122
f 114/143/123 99/121/123 98/115/123
f 122/144/124 107/122/124 106/119/124
f 115/145/125 100/146/125 99/121/125
f 108/147/126 107/122/126 122/144/126
f 116/131/127 101/124/127 100/146/127
f 124/133/128 109/125/128 108/147/128
f 136/148/129 121/142/129 120/149/129
f 114/143/130 113/139/130 128/150/130
f 137/151/131 122/144/131 121/142/131
f 115/145/132 114/143/132 129/152/132
f 123/153/133 122/144/133 137/151/133
f 131/154/134 116/131/134 115/145/134
f 139/155/135 124/133/135 123/153/135
f 117/156/136 116/131/136 131/154/136
f 125/135/137 124/133/137 139/155/137
f 133/157/138 118/134/138 117/156/138
f 141/158/139 126/159/139 125/135/139
f 119/138/140 118/134/140 133/157/140
f 142/160/141 127/136/141 126/159/141
f 120/149/142 119/138/142 134/161/142
f 113/139/143 82/162/143 128/150/143
f 308/163/144 127/136/144 142/160/144
f 140/164/145 139/155/145 154/165/145
f 148/166/146 133/157/146 132/167/146
f 141/158/147 140/164/147 155/168/147
f 134/161/148 133/157/148 148/166/148
f 157/169/149 142/160/149 141/158/149
f 135/170/150 134/161/150 149/171/150
f 128/150/151 82/173/151 143/172/151
f 308/174/152 142/160/152 157/169/152
f 151/175/153 136/148/153 135/170/153
f 144/176/154 129/152/154 128/150/154
f 152/177/155 137/151/155 136/148/155
f 145/178/156 130/179/156 129/152/156
f 138/180/157 137/151/157 152/177/157
f 146/181/158 131/154/158 130/179/158
f 154/165/159 139/155/159 138/180/159
f 132/167/160 131/154/160 146/181/160
f 167/182/161 152/177/161 151/175/161
f 160/183/162 145/178/162 144/176/162
f 153/184/163 152/177/163 167/182/163
f 161/185/164 146/181/164 145/178/164
f 169/186/165 154/165/165 153/184/165
f 147/187/166 146/181/166 161/185/166
f 155/168/167 154/165/167 169/186/167
f 163/188/168 148/166/168 147/187/168
f 156/189/169 155/168/169 170/190/169
f 149/171/170 148/166/170 163/188/170
f 157/169/171 156/189/171 171/191/171
f 150/192/172 149/171/172 164/193/172
f 143/172/173 82/195/173 158/194/173
f 308/196/174 157/169/174 172/197/174
f 166/198/175 151/175/175 150/192/175
f 159/199/176 144/176/176 143/172/176
f 171/191/177 170/190/177 185/200/177
f 164/193/178 163/188/178 178/201/178
f 172/197/179 171/191/179 186/202/179
f 165/203/180 164/193/180 179/204/180
f 158/194/181 82/206/181 173/205/181
f 308/207/182 172/197/182 187/208/182
f 181/209/183 166/198/183 165/203/183
f 174/210/184 159/199/184 158/194/184
f 182/211/185 167/182/185 166/198/185
f 175/212/186 160/183/186 159/199/186
f 168/213/187 167/182/187 182/211/187
f 176/214/188 161/185/188 160/183/188
f 184/215/189 169/186/189 168/213/189
f 162/216/190 161/185/190 176/214/190
f 170/190/191 169/186/191 184/215/191
f 178/201/192 163/188/192 162/216/192
f 175/212/193 174/210/193 189/217/193
f 183/218/194 182/211/194 197/219/194
f 191/220/195 176/214/195 175/212/195
f 199/221/196 184/215/196 183/218/196
f 177/222/197 176/214/197 191/220/197
f 185/200/198 184/215/198 199/221/198
f 193/223/199 178/201/199 177/222/199
f 201/224/200 186/202/200 185/200/200
f 179/204/201 178/201/201 193/223/201
f 202/225/202 187/208/202 186/202/202
f 180/226/203 179/204/203 194/227/203
f 173/205/204 82/229/204 188/228/204
f 308/230/205 187/208/205 202/225/205
f 196/231/206 181/209/206 180/226/206
f 174/210/207 173/205/207 188/228/207
f 197/219/208 182/211/208 181/209/208
f 194/227/209 193/223/209 208/232/209
f 202/225/210 201/224/210 216/233/210
f 195/234/211 194/227/211 209/235/211
f 188/228/212 82/237/212 203/236/212
f 308/238/213 202/225/213 217/239/213
f 211/240/214 196/231/214 195/234/214
f 204/241/215 189/217/215 188/228/215
f 212/242/216 197/219/216 196/231/216
f 205/243/217 190/244/217 189/217/217
f 198/245/218 197/219/218 212/242/218
f 206/246/219 191/220/219 190/244/219
f 214/247/220 199/221/220 198/245/220
f 192/248/221 191/220/221 206/246/221
f 200/249/222 199/221/222 214/247/222
f 208/232/223 193/223/223 192/248/223
f 201/224/224 200/249/224 215/250/224
f 213/251/225 212/242/225 227/252/225
f 221/253/226 206/246/226 205/243/226
f 229/254/227 214/247/227 213/251/227
f 207/255/228 206/246/228 221/253/228
f 215/250/229 214/247/229 229/254/229
f 223/256/230 208/232/230 207/255/230
f 216/233/231 215/250/231 230/257/231
f 209/235/232 208/232/232 223/256/232
f 217/239/233 216/233/233 231/258/233
f 210/259/234 209/235/234 224/260/234
f 203/236/235 82/262/235 218/261/235
f 308/263/236 217/239/236 232/264/236
f 226/265/237 211/240/237 210/259/237
f 219/266/238 204/241/238 203/236/238
f 227/252/239 212/242/239 211/240/239
f 220/267/240 205/243/240 204/241/240
f 247/268/241 232/264/241 231/258/241
f 225/269/242 224/260/242 239/270/242
f 218/261/243 82/272/243 233/271/243
f 308/273/244 232/264/244 247/268/244
f 241/274/245 226/265/245 225/269/245
f 219/266/246 218/261/246 233/271/246
f 242/275/247 227/252/247 226/265/247
f 235/276/248 220/267/248 219/266/248
f 228/277/249 227/252/249 242/275/249
f 236/278/250 221/253/250 220/267/250
f 244/279/251 229/254/251 228/277/251
f 222/280/252 221/253/252 236/278/252
f 230/257/253 229/254/253 244/279/253
f 238/281/254 223/256/254 222/280/254
f 231/258/255 230/257/255 245/282/255
f 224/260/256 223/256/256 238/281/256
f 251/283/257 236/278/257 235/276/257
f 259/284/258 244/279/258 243/285/258
f 237/286/259 236/278/259 251/283/259
f 245/282/260 244/279/260 259/284/260
f 253/287/261 238/281/261 237/286/261
f 261/288/262 246/289/262 245/282/262
f 239/270/263 238/281/263 253/287/263
f 262/290/264 247/268/264 246/289/264
f 240/291/265 239/270/265 254/292/265
f 233/271/266 82/294/266 248/293/266
f 308/295/267 247/268/267 262/290/267
f 256/296/268 241/274/268 240/291/268
f 234/297/269 233/271/269 248/293/269
f 257/298/270 242/275/270 241/274/270
f 235/276/271 234/297/271 249/299/271
f 243/285/272 242/275/272 257/298/272
f 255/300/273 254/292/273 269/301/273
f 248/293/274 82/303/274 263/302/274
f 308/304/275 262/290/275 277/305/275
f 271/306/276 256/296/276 255/300/276
f 249/299/277 248/293/277 263/302/277
f 272/307/278 257/298/278 256/296/278
f 265/308/279 250/309/279 249/299/279
f 258/310/280 257/298/280 272/307/280
f 266/311/281 251/283/281 250/309/281
f 274/312/282 259/284/282 258/310/282
f 252/313/283 251/283/283 266/311/283
f 260/314/284 259/284/284 274/312/284
f 268/315/285 253/287/285 252/313/285
f 261/288/286 260/314/286 275/316/286
f 254/292/287 253/287/287 268/315/287
f 277/305/288 262/290/288 261/288/288
f 289/317/289 274/312/289 273/318/289
f 267/319/290 266/311/290 281/320/290
f 275/316/291 274/312/291 289/317/291
f 283/321/292 268/315/292 267/319/292
f 291/322/293 276/323/293 275/316/293
f 269/301/294 268/315/294 283/321/294
f 292/324/295 277/305/295 276/323/295
f 270/325/296 269/301/296 284/326/296
f 263/302/297 82/328/297 278/327/297
f 308/329/298 277/305/298 292/324/298
f 286/330/299 271/306/299 270/325/299
f 279/331/300 264/332/300 263/302/300
f 287/333/301 272/307/301 271/306/301
f 280/334/302 265/308/302 264/332/302
f 273/318/303 272/307/303 287/333/303
f 281/320/304 266/311/304 265/308/304
f 308/335/305 292/324/305 307/336/305
f 301/337/306 286/330/306 285/338/306
f 294/339/307 279/331/307 278/327/307
f 302/340/308 287/333/308 286/330/308
f 280/334/309 279/331/309 294/339/309
f 288/341/310 287/333/310 302/340/310
f 296/342/311 281/320/311 280/334/311
f 304/343/312 289/317/312 288/341/312
f 282/344/313 281/320/313 296/342/313
f 290/345/314 289/317/314 304/343/314
f 298/346/315 283/321/315 282/344/315
f 306/347/316 291/322/316 290/345/316
f 284/326/317 283/321/317 298/346/317
f 292/324/318 291/322/318 306/347/318
f 285/338/319 284/326/319 299/348/319
f 278/327/320 82/350/320 293/349/320
f 305/351/321 304/343/321 320/352/321
f 314/353/322 298/346/322 297/354/322
f 322/355/323 306/347/323 305/351/323
f 299/348/324 298/346/324 314/353/324
f 323/356/325 307/336/325 306/347/325
f 300/357/326 299/348/326 315/358/326
f 293/349/327 82/360/327 309/359/327
f 308/361/328 307/336/328 323/356/328
f 317/362/329 301/337/329 300/357/329
f 294/339/330 293/349/330 309/359/330
f 318/363/331 302/340/331 301/337/331
f 295/364/332 294/339/332 310/365/332
f 303/366/333 302/340/333 318/363/333
f 312/367/334 296/342/334 295/364/334
f 320/352/335 304/343/335 303/366/335
f 297/354/336 296/342/336 312/367/336
f 325/368/337 310/365/337 309/359/337
f 333/369/338 318/363/338 317/362/338
f 326/370/339 311/371/339 310/365/339
f 319/372/340 318/363/340 333/369/340
f 327/373/341 312/367/341 311/371/341
f 335/374/342 320/352/342 319/372/342
f 313/375/343 312/367/343 327/373/343
f 321/376/344 320/352/344 335/374/344
f 329/377/345 314/353/345 313/375/345
f 337/378/346 322/355/346 321/376/346
f 315/358/347 314/353/347 329/377/347
f 323/356/348 322/355/348 337/378/348
f 316/379/349 315/358/349 330/380/349
f 309/359/350 82/382/350 324/381/350
f 308/383/351 323/356/351 338/384/351
f 332/385/352 317/362/352 316/379/352
f 344/386/353 329/377/353 328/387/353
f 352/388/354 337/378/354 336/389/354
f 330/380/355 329/377/355 344/386/355
f 338/384/356 337/378/356 352/388/356
f 331/390/357 330/380/357 345/391/357
f 324/381/358 82/393/358 339/392/358
f 308/394/359 338/384/359 353/395/359
f 347/396/360 332/385/360 331/390/360
f 340/397/361 325/368/361 324/381/361
f 348/398/362 333/369/362 332/385/362
f 326/370/363 325/368/363 340/397/363
f 334/399/364 333/369/364 348/398/364
f 342/400/365 327/373/365 326/370/365
f 350/401/366 335/374/366 334/399/366
f 328/387/367 327/373/367 342/400/367
f 336/389/368 335/374/368 350/401/368
f 363/402/369 348/398/369 347/396/369
f 341/403/370 340/397/370 355/404/370
f 349/405/371 348/398/371 363/402/371
f 357/406/372 342/400/372 341/403/372
f 365/407/373 350/401/373 349/405/373
f 343/408/374 342/400/374 357/406/374
f 351/409/375 350/401/375 365/407/375
f 359/410/376 344/386/376 343/408/376
f 367/411/377 352/388/377 351/409/377
f 345/391/378 344/386/378 359/410/378
f 353/395/379 352/388/379 367/411/379
f 346/412/380 345/391/380 360/413/380
f 339/392/381 82/415/381 354/414/381
f 308/416/382 353/395/382 368/417/382
f 362/418/383 347/396/383 346/412/383
f 355/404/384 340/397/384 339/392/384
f 382/419/385 367/421/385 366/420/385
f 360/422/386 359/424/386 374/423/386
f 383/425/387 368/426/387 367/421/387
f 361/427/388 360/422/388 375/428/388
f 354/429/389 82/431/389 369/430/389
f 308/432/390 368/426/390 383/425/390
f 377/433/391 362/434/391 361/427/391
f 355/435/392 354/429/392 369/430/392
f 378/436/393 363/437/393 362/434/393
f 356/438/394 355/435/394 370/439/394
f 364/440/395 363/437/395 378/436/395
f 372/441/396 357/442/396 356/438/396
f 380/443/397 365/444/397 364/440/397
f 358/445/398 357/442/398 372/441/398
f 366/420/399 365/444/399 380/443/399
f 374/423/400 359/424/400 358/445/400
f 371/446/401 370/439/401 385/447/401
f 379/448/402 378/436/402 393/449/402
f 387/450/403 372/441/403 371/446/403
f 395/451/404 380/443/404 379/448/404
f 373/452/405 372/441/405 387/450/405
f 381/453/406 380/443/406 395/451/406
f 389/454/407 374/423/407 373/452/407
f 397/455/408 382/419/408 381/453/408
f 375/428/409 374/423/409 389/454/409
f 398/456/410 383/425/410 382/419/410
f 376/457/411 375/428/411 390/458/411
f 369/430/412 82/460/412 384/459/412
f 308/461/413 383/425/413 398/456/413
f 392/462/414 377/433/414 376/457/414
f 370/439/415 369/430/415 384/459/415
f 393/449/416 378/436/416 377/433/416
f 390/458/417 389/454/417 404/463/417
f 398/456/418 397/455/418 412/464/418
f 391/465/419 390/458/419 405/466/419
f 384/459/420 82/468/420 399/467/420
f 308/469/421 398/456/421 413/470/421
f 407/471/422 392/462/422 391/465/422
f 400/472/423 385/447/423 384/459/423
f 408/473/424 393/449/424 392/462/424
f 386/474/425 385/447/425 400/472/425
f 394/475/426 393/449/426 408/473/426
f 402/476/427 387/450/427 386/474/427
f 410/477/428 395/451/428 394/475/428
f 388/478/429 387/450/429 402/476/429
f 396/479/430 395/451/430 410/477/430
f 404/463/431 389/454/431 388/478/431
f 412/464/432 397/455/432 396/479/432
f 409/480/433 408/473/433 423/481/433
f 417/482/434 402/476/434 401/483/434
f 425/484/435 410/477/435 409/480/435
f 403/485/436 402/476/436 417/482/436
f 411/486/437 410/477/437 425/484/437
f 419/487/438 404/463/438 403/485/438
f 427/488/439 412/464/439 411/486/439
f 405/466/440 404/463/440 419/487/440
f 428/489/441 413/470/441 412/464/441
f 406/490/442 405/466/442 420/491/442
f 399/467/443 82/493/443 414/492/443
f 308/494/444 413/470/444 428/489/444
f 422/495/445 407/471/445 406/490/445
f 415/496/446 400/472/446 399/467/446
f 423/481/447 408/473/447 407/471/447
f 401/483/448 400/472/448 415/496/448
f 428/489/449 427/488/449 442/497/449
f 421/498/450 420/491/450 435/499/450
f 414/492/451 82/501/451 429/500/451
f 308/502/452 428/489/452 443/503/452
f 437/504/453 422/495/453 421/498/453
f 430/505/454 415/496/454 414/492/454
f 438/506/455 423/481/455 422/495/455
f 416/507/456 415/496/456 430/505/456
f 424/508/457 423/481/457 438/506/457
f 432/509/458 417/482/458 416/507/458
f 440/510/459 425/484/459 424/508/459
f 418/511/460 417/482/460 432/509/460
f 426/512/461 425/484/461 440/510/461
f 434/513/462 419/487/462 418/511/462
f 442/497/463 427/488/463 426/512/463
f 420/491/464 419/487/464 434/513/464
f 455/514/465 440/510/465 439/515/465
f 433/516/466 432/509/466 447/517/466
f 441/518/467 440/510/467 455/514/467
f 449/519/468 434/513/468 433/516/468
f 457/520/469 442/497/469 441/518/469
f 435/499/470 434/513/470 449/519/470
f 458/521/471 443/503/471 442/497/471
f 436/522/472 435/499/472 450/523/472
f 429/500/473 82/525/473 444/524/473
f 308/526/474 443/503/474 458/521/474
f 452/527/475 437/504/475 436/522/475
f 430/505/476 429/500/476 444/524/476
f 453/528/477 438/506/477 437/504/477
f 431/529/478 430/505/478 445/530/478
f 439/515/479 438/506/479 453/528/479
f 447/517/480 432/509/480 431/529/480
f 444/524/481 82/532/481 459/531/481
f 308/533/482 458/521/482 473/534/482
f 467/535/483 452/527/483 451/536/483
f 460/537/484 445/530/484 444/524/484
f 468/538/485 453/528/485 452/527/485
f 446/539/486 445/530/486 460/537/486
f 454/540/487 453/528/487 468/538/487
f 462/541/488 447/517/488 446/539/488
f 470/542/489 455/514/489 454/540/489
f 448/543/490 447/517/490 462/541/490
f 456/544/491 455/514/491 470/542/491
f 464/545/492 449/519/492 448/543/492
f 472/546/493 457/520/493 456/544/493
f 450/523/494 449/519/494 464/545/494
f 458/521/495 457/520/495 472/546/495
f 451/536/496 450/523/496 465/547/496
f 463/548/497 462/541/497 476/5/497
f 471/549/498 470/542/498 479/1/498
f 464/545/499 463/548/499 2/6/499
f 481/11/500 472/546/500 471/549/500
f 465/547/501 464/545/501 477/9/501
f 482/15/502 473/534/502 472/546/502
f 466/550/503 465/547/503 3/12/503
f 459/531/504 82/551/504 474/18/504
f 308/552/505 473/534/505 482/15/505
f 5/23/506 467/535/506 466/550/506
f 475/24/507 460/537/507 459/531/507
f 478/26/508 468/538/508 467/535/508
f 461/553/509 460/537/509 475/24/509
f 6/3/510 469/554/510 468/538/510
f 462/541/511 461/553/511 1/27/511
f 479/1/512 470/542/512 469/554/512
f 479/1/1 17/2/1 18/33/1
f 11/4/2 476/5/2 10/32/2
f 19/7/3 479/1/3 18/33/3
f 477/9/4 11/4/4 12/13/4
f 20/10/5 480/8/5 19/7/5
f 3/12/6 12/13/6 13/39/6
f 21/14/7 481/11/7 20/10/7
f 14/16/513 3/12/513 13/39/513
f 15/22/514 4/17/514 14/16/514
f 475/24/12 7/19/12 8/28/12
f 16/25/13 5/23/13 15/22/13
f 1/27/14 8/28/14 9/29/14
f 17/2/15 478/26/15 16/25/15
f 476/5/16 9/29/16 10/32/16
f 17/2/17 31/30/17 32/34/17
f 25/31/18 9/29/18 24/47/18
f 18/33/19 32/34/19 33/36/19
f 26/35/20 10/32/20 25/31/20
f 19/7/21 33/36/21 34/38/21
f 27/37/22 11/4/22 26/35/22
f 20/10/23 34/38/23 35/49/23
f 13/39/24 27/37/24 28/51/24
f 36/40/25 20/10/25 35/49/25
f 29/41/26 13/39/26 28/51/26
f 30/45/515 14/16/515 29/41/515
f 23/46/30 7/19/30 22/42/30
f 31/30/31 15/22/31 30/45/31
f 24/47/32 8/28/32 23/46/32
f 36/40/33 50/48/33 51/55/33
f 29/41/34 43/50/34 44/71/34
f 45/56/37 29/41/37 44/71/37
f 38/57/38 22/42/38 37/52/38
f 46/58/39 30/45/39 45/56/39
f 39/59/516 23/46/516 38/57/516
f 32/34/41 46/58/41 47/61/41
f 40/60/42 24/47/42 39/59/42
f 33/36/43 47/61/43 48/63/43
f 41/62/44 25/31/44 40/60/44
f 34/38/45 48/63/45 49/65/45
f 42/64/46 26/35/46 41/62/46
f 35/49/517 49/65/517 50/48/517
f 28/51/48 42/64/48 43/50/48
f 55/66/49 39/59/49 54/80/49
f 63/67/50 47/61/50 62/90/50
f 41/62/51 55/66/51 56/93/51
f 49/65/52 63/67/52 64/69/52
f 57/68/53 41/62/53 56/93/53
f 50/48/54 64/69/54 65/70/54
f 43/50/55 57/68/55 58/72/55
f 51/55/56 65/70/56 66/76/56
f 44/71/57 58/72/57 59/81/57
f 60/77/60 44/71/60 59/81/60
f 53/78/61 37/52/61 52/73/61
f 61/79/62 45/56/62 60/77/62
f 54/80/63 38/57/63 53/78/63
f 47/61/64 61/79/64 62/90/64
f 59/81/65 73/82/65 74/104/65
f 75/87/68 59/81/68 74/104/68
f 53/78/518 67/83/518 68/89/518
f 76/88/70 60/77/70 75/87/70
f 54/80/71 68/89/71 69/114/71
f 62/90/72 76/88/72 77/97/72
f 70/91/73 54/80/73 69/114/73
f 78/92/74 62/90/74 77/97/74
f 56/93/75 70/91/75 71/98/75
f 64/69/76 78/92/76 79/100/76
f 72/94/77 56/93/77 71/98/77
f 80/95/78 64/69/78 79/100/78
f 58/72/79 72/94/79 73/82/79
f 81/86/80 65/70/80 80/95/80
f 94/96/81 77/97/81 93/123/81
f 71/98/82 86/99/82 87/126/82
f 79/100/83 94/96/83 95/102/83
f 88/101/84 71/98/84 87/126/84
f 80/95/85 95/102/85 96/103/85
f 73/82/86 88/101/86 89/105/86
f 81/86/87 96/103/87 97/109/87
f 74/104/88 89/105/88 90/120/88
f 91/110/91 74/104/91 90/120/91
f 84/111/92 67/83/92 83/106/92
f 92/112/93 75/87/93 91/110/93
f 85/113/94 68/89/94 84/111/94
f 77/97/95 92/112/95 93/123/95
f 86/99/96 69/114/96 85/113/96
f 106/119/99 90/120/99 105/137/99
f 99/121/100 83/106/100 98/115/100
f 107/122/101 91/110/101 106/119/101
f 85/113/102 99/121/102 100/146/102
f 93/123/103 107/122/103 108/147/103
f 101/124/104 85/113/104 100/146/104
f 109/125/105 93/123/105 108/147/105
f 87/126/106 101/124/106 102/130/106
f 95/102/107 109/125/107 110/132/107
f 103/127/108 87/126/108 102/130/108
f 111/128/109 95/102/109 110/132/109
f 89/105/110 103/127/110 104/129/110
f 112/118/111 96/103/111 111/128/111
f 90/120/112 104/129/112 105/137/112
f 102/130/113 116/131/113 117/156/113
f 110/132/114 124/133/114 125/135/114
f 118/134/115 102/130/115 117/156/115
f 111/128/116 125/135/116 126/159/116
f 104/129/117 118/134/117 119/138/117
f 127/136/118 111/128/118 126/159/118
f 105/137/119 119/138/119 120/149/119
f 121/142/122 105/137/122 120/149/122
f 114/143/123 98/115/123 113/139/123
f 122/144/124 106/119/124 121/142/124
f 115/145/125 99/121/125 114/143/125
f 108/147/126 122/144/126 123/153/126
f 116/131/127 100/146/127 115/145/127
f 124/133/128 108/147/128 123/153/128
f 136/148/129 120/149/129 135/170/129
f 114/143/130 128/150/130 129/152/130
f 137/151/131 121/142/131 136/148/131
f 115/145/132 129/152/132 130/179/132
f 123/153/133 137/151/133 138/180/133
f 131/154/134 115/145/134 130/179/134
f 139/155/135 123/153/135 138/180/135
f 117/156/136 131/154/136 132/167/136
f 125/135/137 139/155/137 140/164/137
f 133/157/138 117/156/138 132/167/138
f 141/158/139 125/135/139 140/164/139
f 119/138/140 133/157/140 134/161/140
f 142/160/141 126/159/141 141/158/141
f 120/149/142 134/161/142 135/170/142
f 140/164/145 154/165/145 155/168/145
f 148/166/146 132/167/146 147/187/146
f 141/158/147 155/168/147 156/189/147
f 134/161/148 148/166/148 149/171/148
f 157/169/149 141/158/149 156/189/149
f 135/170/150 149/171/150 150/192/150
f 151/175/153 135/170/153 150/192/153
f 144/176/154 128/150/154 143/172/154
f 152/177/155 136/148/155 151/175/155
f 145/178/156 129/152/156 144/176/156
f 138/180/157 152/177/157 153/184/157
f 146/181/158 130/179/158 145/178/158
f 154/165/159 138/180/159 153/184/159
f 132/167/160 146/181/160 147/187/160
f 167/182/161 151/175/161 166/198/161
f 160/183/162 144/176/162 159/199/162
f 153/184/163 167/182/163 168/213/163
f 161/185/164 145/178/164 160/183/164
f 169/186/165 153/184/165 168/213/165
f 147/187/166 161/185/166 162/216/166
f 155/168/167 169/186/167 170/190/167
f 163/188/168 147/187/168 162/216/168
f 156/189/169 170/190/169 171/191/169
f 149/171/170 163/188/170 164/193/170
f 157/169/519 171/191/519 172/197/519
f 150/192/172 164/193/172 165/203/172
f 166/198/175 150/192/175 165/203/175
f 159/199/176 143/172/176 158/194/176
f 171/191/177 185/200/177 186/202/177
f 164/193/178 178/201/178 179/204/178
f 172/197/179 186/202/179 187/208/179
f 165/203/180 179/204/180 180/226/180
f 181/209/183 165/203/183 180/226/183
f 174/210/520 158/194/520 173/205/520
f 182/211/185 166/198/185 181/209/185
f 175/212/186 159/199/186 174/210/186
f 168/213/187 182/211/187 183/218/187
f 176/214/188 160/183/188 175/212/188
f 184/215/189 168/213/189 183/218/189
f 162/216/190 176/214/190 177/222/190
f 170/190/191 184/215/191 185/200/191
f 178/201/192 162/216/192 177/222/192
f 175/212/193 189/217/193 190/244/193
f 183/218/194 197/219/194 198/245/194
f 191/220/195 175/212/195 190/244/195
f 199/221/196 183/218/196 198/245/196
f 177/222/197 191/220/197 192/248/197
f 185/200/198 199/221/198 200/249/198
f 193/223/199 177/222/199 192/248/199
f 201/224/200 185/200/200 200/249/200
f 179/204/201 193/223/201 194/227/201
f 202/225/202 186/202/202 201/224/202
f 180/226/203 194/227/203 195/234/203
f 196/231/206 180/226/206 195/234/206
f 174/210/207 188/228/207 189/217/207
f 197/219/208 181/209/208 196/231/208
f 194/227/209 208/232/209 209/235/209
f 202/225/210 216/233/210 217/239/210
f 195/234/211 209/235/211 210/259/211
f 211/240/214 195/234/214 210/259/214
f 204/241/215 188/228/215 203/236/215
f 212/242/216 196/231/216 211/240/216
f 205/243/217 189/217/217 204/241/217
f 198/245/218 212/242/218 213/251/218
f 206/246/219 190/244/219 205/243/219
f 214/247/220 198/245/220 213/251/220
f 192/248/221 206/246/221 207/255/221
f 200/249/222 214/247/222 215/250/222
f 208/232/223 192/248/223 207/255/223
f 201/224/224 215/250/224 216/233/224
f 213/251/225 227/252/225 228/277/225
f 221/253/226 205/243/226 220/267/226
f 229/254/227 213/251/227 228/277/227
f 207/255/228 221/253/228 222/280/228
f 215/250/229 229/254/229 230/257/229
f 223/256/230 207/255/230 222/280/230
f 216/233/231 230/257/231 231/258/231
f 209/235/232 223/256/232 224/260/232
f 217/239/233 231/258/233 232/264/233
f 210/259/234 224/260/234 225/269/234
f 226/265/237 210/259/237 225/269/237
f 219/266/238 203/236/238 218/261/238
f 227/252/239 211/240/239 226/265/239
f 220/267/240 204/241/240 219/266/240
f 247/268/241 231/258/241 246/289/241
f 225/269/242 239/270/242 240/291/242
f 241/274/245 225/269/245 240/291/245
f 219/266/246 233/271/246 234/297/246
f 242/275/247 226/265/247 241/274/247
f 235/276/248 219/266/248 234/297/248
f 228/277/249 242/275/249 243/285/249
f 236/278/250 220/267/250 235/276/250
f 244/279/251 228/277/251 243/285/251
f 222/280/252 236/278/252 237/286/252
f 230/257/253 244/279/253 245/282/253
f 238/281/254 222/280/254 237/286/254
f 231/258/255 245/282/255 246/289/255
f 224/260/256 238/281/256 239/270/256
f 251/283/257 235/276/257 250/309/257
f 259/284/258 243/285/258 258/310/258
f 237/286/259 251/283/259 252/313/259
f 245/282/260 259/284/260 260/314/260
f 253/287/261 237/286/261 252/313/261
f 261/288/262 245/282/262 260/314/262
f 239/270/263 253/287/263 254/292/263
f 262/290/264 246/289/264 261/288/264
f 240/291/521 254/292/521 255/300/521
f 256/296/522 240/291/522 255/300/522
f 234/297/269 248/293/269 249/299/269
f 257/298/270 241/274/270 256/296/270
f 235/276/271 249/299/271 250/309/271
f 243/285/272 257/298/272 258/310/272
f 255/300/273 269/301/273 270/325/273
f 271/306/276 255/300/276 270/325/276
f 249/299/277 263/302/277 264/332/277
f 272/307/278 256/296/278 271/306/278
f 265/308/279 249/299/279 264/332/279
f 258/310/280 272/307/280 273/318/280
f 266/311/281 250/309/281 265/308/281
f 274/312/282 258/310/282 273/318/282
f 252/313/283 266/311/283 267/319/283
f 260/314/284 274/312/284 275/316/284
f 268/315/285 252/313/285 267/319/285
f 261/288/286 275/316/286 276/323/286
f 254/292/287 268/315/287 269/301/287
f 277/305/288 261/288/288 276/323/288
f 289/317/289 273/318/289 288/341/289
f 267/319/290 281/320/290 282/344/290
f 275/316/291 289/317/291 290/345/291
f 283/321/292 267/319/292 282/344/292
f 291/322/523 275/316/523 290/345/523
f 269/301/294 283/321/294 284/326/294
f 292/324/295 276/323/295 291/322/295
f 270/325/296 284/326/296 285/338/296
f 286/330/299 270/325/299 285/338/299
f 279/331/300 263/302/300 278/327/300
f 287/333/301 271/306/301 286/330/301
f 280/334/524 264/332/524 279/331/524
f 273/318/303 287/333/303 288/341/303
f 281/320/304 265/308/304 280/334/304
f 301/337/306 285/338/306 300/357/306
f 294/339/307 278/327/307 293/349/307
f 302/340/308 286/330/308 301/337/308
f 280/334/309 294/339/309 295/364/309
f 288/341/310 302/340/310 303/366/310
f 296/342/311 280/334/311 295/364/311
f 304/343/312 288/341/312 303/366/312
f 282/344/313 296/342/313 297/354/313
f 290/345/314 304/343/314 305/351/314
f 298/346/315 282/344/315 297/354/315
f 306/347/316 290/345/316 305/351/316
f 284/326/317 298/346/317 299/348/317
f 292/324/318 306/347/318 307/336/318
f 285/338/319 299/348/319 300/357/319
f 305/351/321 320/352/321 321/376/321
f 314/353/322 297/354/322 313/375/322
f 322/355/323 305/351/323 321/376/323
f 299/348/324 314/353/324 315/358/324
f 323/356/325 306/347/325 322/355/325
f 300/357/326 315/358/326 316/379/326
f 317/362/329 300/357/329 316/379/329
f 294/339/525 309/359/525 310/365/525
f 318/363/331 301/337/331 317/362/331
f 295/364/332 310/365/332 311/371/332
f 303/366/333 318/363/333 319/372/333
f 312/367/334 295/364/334 311/371/334
f 320/352/335 303/366/335 319/372/335
f 297/354/336 312/367/336 313/375/336
f 325/368/337 309/359/337 324/381/337
f 333/369/338 317/362/338 332/385/338
f 326/370/339 310/365/339 325/368/339
f 319/372/340 333/369/340 334/399/340
f 327/373/341 311/371/341 326/370/341
f 335/374/342 319/372/342 334/399/342
f 313/375/343 327/373/343 328/387/343
f 321/376/344 335/374/344 336/389/344
f 329/377/345 313/375/345 328/387/345
f 337/378/526 321/376/526 336/389/526
f 315/358/347 329/377/347 330/380/347
f 323/356/348 337/378/348 338/384/348
f 316/379/349 330/380/349 331/390/349
f 332/385/352 316/379/352 331/390/352
f 344/386/353 328/387/353 343/408/353
f 352/388/354 336/389/354 351/409/354
f 330/380/355 344/386/355 345/391/355
f 338/384/356 352/388/356 353/395/356
f 331/390/357 345/391/357 346/412/357
f 347/396/360 331/390/360 346/412/360
f 340/397/361 324/381/361 339/392/361
f 348/398/362 332/385/362 347/396/362
f 326/370/363 340/397/363 341/403/363
f 334/399/364 348/398/364 349/405/364
f 342/400/365 326/370/365 341/403/365
f 350/401/366 334/399/366 349/405/366
f 328/387/367 342/400/367 343/408/367
f 336/389/368 350/401/368 351/409/368
f 363/402/369 347/396/369 362/418/369
f 341/403/370 355/404/370 356/555/370
f 349/405/371 363/402/371 364/556/371
f 357/406/372 341/403/372 356/555/372
f 365/407/373 349/405/373 364/556/373
f 343/408/374 357/406/374 358/557/374
f 351/409/375 365/407/375 366/558/375
f 359/410/376 343/408/376 358/557/376
f 367/411/377 351/409/377 366/558/377
f 345/391/378 359/410/378 360/413/378
f 353/395/379 367/411/379 368/417/379
f 346/412/527 360/413/527 361/559/527
f 362/418/528 346/412/528 361/559/528
f 355/404/384 339/392/384 354/414/384
f 382/419/385 366/420/385 381/453/385
f 360/422/386 374/423/386 375/428/386
f 383/425/387 367/421/387 382/419/387
f 361/427/529 375/428/529 376/457/529
f 377/433/530 361/427/530 376/457/530
f 355/435/392 369/430/392 370/439/392
f 378/436/393 362/434/393 377/433/393
f 356/438/394 370/439/394 371/446/394
f 364/440/395 378/436/395 379/448/395
f 372/441/396 356/438/396 371/446/396
f 380/443/397 364/440/397 379/448/397
f 358/445/398 372/441/398 373/452/398
f 366/420/399 380/443/399 381/453/399
f 374/423/400 358/445/400 373/452/400
f 371/446/401 385/447/401 386/474/401
f 379/448/402 393/449/402 394/475/402
f 387/450/403 371/446/403 386/474/403
f 395/451/404 379/448/404 394/475/404
f 373/452/405 387/450/405 388/478/405
f 381/453/406 395/451/406 396/479/406
f 389/454/407 373/452/407 388/478/407
f 397/455/408 381/453/408 396/479/408
f 375/428/409 389/454/409 390/458/409
f 398/456/410 382/419/410 397/455/410
f 376/457/411 390/458/411 391/465/411
f 392/462/414 376/457/414 391/465/414
f 370/439/415 384/459/415 385/447/415
f 393/449/416 377/433/416 392/462/416
f 390/458/417 404/463/417 405/466/417
f 398/456/418 412/464/418 413/470/418
f 391/465/419 405/466/419 406/490/419
f 407/471/422 391/465/422 406/490/422
f 400/472/423 384/459/423 399/467/423
f 408/473/424 392/462/424 407/471/424
f 386/474/425 400/472/425 401/483/425
f 394/475/426 408/473/426 409/480/426
f 402/476/427 386/474/427 401/483/427
f 410/477/428 394/475/428 409/480/428
f 388/478/429 402/476/429 403/485/429
f 396/479/430 410/477/430 411/486/430
f 404/463/431 388/478/431 403/485/431
f 412/464/432 396/479/432 411/486/432
f 409/480/433 423/481/433 424/508/433
f 417/482/434 401/483/434 416/507/434
f 425/484/435 409/480/435 424/508/435
f 403/485/436 417/482/436 418/511/436
f 411/486/437 425/484/437 426/512/437
f 419/487/438 403/485/438 418/511/438
f 427/488/439 411/486/439 426/512/439
f 405/466/440 419/487/440 420/491/440
f 428/489/441 412/464/441 427/488/441
f 406/490/442 420/491/442 421/498/442
f 422/495/445 406/490/445 421/498/445
f 415/496/446 399/467/446 414/492/446
f 423/481/447 407/471/447 422/495/447
f 401/483/448 415/496/448 416/507/448
f 428/489/449 442/497/449 443/503/449
f 421/498/450 435/499/450 436/522/450
f 437/504/453 421/498/453 436/522/453
f 430/505/454 414/492/454 429/500/454
f 438/506/455 422/495/455 437/504/455
f 416/507/456 430/505/456 431/529/456
f 424/508/457 438/506/457 439/515/457
f 432/509/458 416/507/458 431/529/458
f 440/510/459 424/508/459 439/515/459
f 418/511/460 432/509/460 433/516/460
f 426/512/461 440/510/461 441/518/461
f 434/513/462 418/511/462 433/516/462
f 442/497/463 426/512/463 441/518/463
f 420/491/464 434/513/464 435/499/464
f 455/514/465 439/515/465 454/540/465
f 433/516/466 447/517/466 448/543/466
f 441/518/467 455/514/467 456/544/467
f 449/519/468 433/516/468 448/543/468
f 457/520/469 441/518/469 456/544/469
f 435/499/470 449/519/470 450/523/470
f 458/521/471 442/497/471 457/520/471
f 436/522/472 450/523/472 451/536/472
f 452/527/475 436/522/475 451/536/475
f 430/505/476 444/524/476 445/530/476
f 453/528/477 437/504/477 452/527/477
f 431/529/478 445/530/478 446/539/478
f 439/515/479 453/528/479 454/540/479
f 447/517/480 431/529/480 446/539/480
f 467/535/483 451/536/483 466/550/483
f 460/537/484 444/524/484 459/531/484
f 468/538/485 452/527/485 467/535/485
f 446/539/486 460/537/486 461/553/486
f 454/540/487 468/538/487 469/554/487
f 462/541/488 446/539/488 461/553/488
f 470/542/489 454/540/489 469/554/489
f 448/543/490 462/541/490 463/548/490
f 456/544/491 470/542/491 471/549/491
f 464/545/492 448/543/492 463/548/492
f 472/546/493 456/544/493 471/549/493
f 450/523/494 464/545/494 465/547/494
f 458/521/495 472/546/495 473/534/495
f 451/536/496 465/547/496 466/550/496
f 463/548/497 476/5/497 2/6/497
f 471/549/498 479/1/498 480/8/498
f 464/545/499 2/6/499 477/9/499
f 481/11/500 471/549/500 480/8/500
f 465/547/501 477/9/501 3/12/501
f 482/15/502 472/546/502 481/11/502
f 466/550/503 3/12/503 4/17/503
f 5/23/506 466/550/506 4/17/506
f 475/24/507 459/531/507 474/18/507
f 478/26/508 467/535/508 5/23/508
f 461/553/509 475/24/509 1/27/509
f 6/3/510 468/538/510 478/26/510
f 462/541/511 1/27/511 476/5/511
f 479/1/512 469/554/512 6/3/512
