# Blender 4.1.1
# www.blender.org
mtllib e.mtl
o テキスト
v -0.125000 1.000000 -0.000000
v -1.125000 1.000000 -0.000000
v -1.125000 0.833333 -0.000000
v -0.458333 0.833333 -0.000000
v -0.458333 0.583333 -0.000000
v -1.041667 0.583333 -0.000000
v -1.041667 0.416667 -0.000000
v -0.458333 0.416667 -0.000000
v -0.458333 0.166667 -0.000000
v -1.125000 0.166667 -0.000000
v -1.125000 0.000000 0.000000
v -0.125000 0.000000 0.000000
vn -0.0000 -0.0000 -1.0000
vt 1.000000 0.000000
vt 0.272727 0.000000
vt 0.000000 0.000000
vt 0.090909 0.000000
vt 0.181818 0.000000
vt 0.363636 0.000000
vt 0.636364 0.000000
vt 0.454545 0.000000
vt 0.545455 0.000000
vt 0.727273 0.000000
vt 0.818182 0.000000
vt 0.909091 0.000000
s 0
usemtl マテリアル
f 12/1/1 4/2/1 1/3/1
f 4/2/1 2/4/1 1/3/1
f 4/2/1 3/5/1 2/4/1
f 12/1/1 5/6/1 4/2/1
f 12/1/1 8/7/1 5/6/1
f 8/7/1 6/8/1 5/6/1
f 8/7/1 7/9/1 6/8/1
f 12/1/1 9/10/1 8/7/1
f 12/1/1 10/11/1 9/10/1
f 12/1/1 11/12/1 10/11/1
