# Blender 4.1.1
# www.blender.org
mtllib pushspace.mtl
o テキスト
v -7.698428 0.406105 -0.000000
v -7.683626 0.349676 -0.000000
v -8.252544 0.349676 -0.000000
v -8.188714 0.108233 -0.000000
v -7.619797 0.108233 -0.000000
v -7.604995 0.052729 -0.000000
v -8.173913 0.052729 -0.000000
v -8.111934 -0.185014 0.000000
v -7.246994 -0.185014 0.000000
v -7.465310 0.647549 -0.000000
v -8.330250 0.647549 -0.000000
v -8.266420 0.406105 -0.000000
v -6.772433 0.406105 -0.000000
v -6.679001 0.052729 -0.000000
v -7.244218 0.052729 -0.000000
v -7.179463 -0.188714 0.000000
v -6.318224 -0.188714 0.000000
v -6.362628 -0.024977 0.000000
v -6.476411 0.406105 -0.000000
v -6.475486 0.406105 -0.000000
v -6.540241 0.647549 -0.000000
v -7.401480 0.647549 -0.000000
v -7.336725 0.406105 -0.000000
v -6.259020 -0.185014 0.000000
v -5.962997 -0.185014 0.000000
v -6.040703 0.108233 -0.000000
v -5.768733 0.108233 -0.000000
v -5.690102 -0.185014 0.000000
v -5.394080 -0.185014 0.000000
v -5.617022 0.647549 -0.000000
v -6.480111 0.647549 -0.000000
v -6.104533 0.349676 -0.000000
v -6.120259 0.406105 -0.000000
v -5.848289 0.406105 -0.000000
v -5.833488 0.349676 -0.000000
v -5.408881 0.108233 -0.000000
v -4.842739 0.108233 -0.000000
v -4.765033 -0.185014 0.000000
v -4.469010 -0.185014 0.000000
v -4.690102 0.647549 -0.000000
v -5.551342 0.647549 -0.000000
v -5.191490 0.406105 -0.000000
v -4.922295 0.406105 -0.000000
v -4.906568 0.349676 -0.000000
v -5.176689 0.349676 -0.000000
v -3.604070 0.052729 -0.000000
v -4.172063 0.052729 -0.000000
v -4.186864 0.108233 -0.000000
v -3.617946 0.108233 -0.000000
v -3.761332 0.647549 -0.000000
v -4.625347 0.647549 -0.000000
v -4.560592 0.406105 -0.000000
v -3.993525 0.406105 -0.000000
v -3.977798 0.349676 -0.000000
v -4.547641 0.349676 -0.000000
v -4.405180 -0.185014 0.000000
v -3.539315 -0.185014 0.000000
v -3.704903 0.645698 -0.000000
v -3.483811 -0.186864 0.000000
v -3.187789 -0.186864 0.000000
v -3.266420 0.108233 -0.000000
v -2.993525 0.108233 -0.000000
v -2.914894 -0.186864 0.000000
v -2.618871 -0.186864 0.000000
v -2.839963 0.645698 -0.000000
v -3.135985 0.645698 -0.000000
v -3.057354 0.349676 -0.000000
v -3.330250 0.349676 -0.000000
v -3.408881 0.645698 -0.000000
v -1.753932 0.052729 -0.000000
v -2.321924 0.052729 -0.000000
v -2.336725 0.108233 -0.000000
v -1.767808 0.108233 -0.000000
v -1.911193 0.647549 -0.000000
v -2.775208 0.647549 -0.000000
v -2.710453 0.406105 -0.000000
v -2.143386 0.406105 -0.000000
v -2.127660 0.349676 -0.000000
v -2.697502 0.349676 -0.000000
v -2.555042 -0.185014 0.000000
v -1.689177 -0.185014 0.000000
v -1.854764 0.645698 -0.000000
v -1.633672 -0.185014 0.000000
v -0.768733 -0.185014 0.000000
v -0.989824 0.645698 -0.000000
v -1.285846 0.645698 -0.000000
v -1.127660 0.052729 -0.000000
v -1.400555 0.052729 -0.000000
v -1.558742 0.645698 -0.000000
v -0.783534 0.108233 -0.000000
v -0.217391 0.108233 -0.000000
v -0.139685 -0.185014 0.000000
v 0.156337 -0.185014 0.000000
v -0.064755 0.647549 -0.000000
v -0.925994 0.647549 -0.000000
v -0.566142 0.406105 -0.000000
v -0.296947 0.406105 -0.000000
v -0.281221 0.349676 -0.000000
v -0.551341 0.349676 -0.000000
vn -0.0000 -0.0000 -1.0000
vt 0.727273 0.000000
vt 0.000000 0.000000
vt 0.818182 0.000000
vt 0.909091 0.000000
vt 1.000000 0.000000
vt 0.090909 0.000000
vt 0.363636 0.000000
vt 0.181818 0.000000
vt 0.272727 0.000000
vt 0.454545 0.000000
vt 0.545455 0.000000
vt 0.636364 0.000000
vt 0.700000 0.000000
vt 0.900000 0.000000
vt 0.800000 0.000000
vt 0.600000 0.000000
vt 0.500000 0.000000
vt 0.100000 0.000000
vt 0.200000 0.000000
vt 0.300000 0.000000
vt 0.400000 0.000000
vt 0.333333 0.000000
vt 0.777778 0.000000
vt 0.444444 0.000000
vt 0.555556 0.000000
vt 0.666667 0.000000
vt 0.888889 0.000000
vt 0.111111 0.000000
vt 0.222222 0.000000
vt 0.285714 0.000000
vt 0.571429 0.000000
vt 0.428571 0.000000
vt 0.714286 0.000000
vt 0.857143 0.000000
vt 0.142857 0.000000
s 0
usemtl マテリアル
f 9/1/1 1/2/1 10/3/1
f 1/2/1 11/4/1 10/3/1
f 1/2/1 12/5/1 11/4/1
f 9/1/1 2/6/1 1/2/1
f 9/1/1 5/7/1 2/6/1
f 5/7/1 3/8/1 2/6/1
f 5/7/1 4/9/1 3/8/1
f 9/1/1 6/10/1 5/7/1
f 9/1/1 7/11/1 6/10/1
f 9/1/1 8/12/1 7/11/1
f 20/13/1 22/14/1 21/15/1
f 20/13/1 23/5/1 22/14/1
f 19/16/1 23/5/1 20/13/1
f 18/17/1 13/2/1 19/16/1
f 13/2/1 23/5/1 19/16/1
f 18/17/1 14/18/1 13/2/1
f 18/17/1 15/19/1 14/18/1
f 18/17/1 16/20/1 15/19/1
f 17/21/1 16/20/1 18/17/1
f 29/10/1 34/4/1 30/11/1
f 34/4/1 31/12/1 30/11/1
f 34/4/1 33/3/1 31/12/1
f 33/3/1 24/2/1 31/12/1
f 29/10/1 35/5/1 34/4/1
f 32/1/1 24/2/1 33/3/1
f 29/10/1 27/9/1 35/5/1
f 27/9/1 32/1/1 35/5/1
f 27/9/1 26/8/1 32/1/1
f 26/8/1 24/2/1 32/1/1
f 29/10/1 28/7/1 27/9/1
f 25/6/1 24/2/1 26/8/1
f 39/22/1 43/23/1 40/24/1
f 43/23/1 41/25/1 40/24/1
f 43/23/1 42/26/1 41/25/1
f 42/26/1 36/2/1 41/25/1
f 39/22/1 44/27/1 43/23/1
f 45/5/1 36/2/1 42/26/1
f 39/22/1 37/28/1 44/27/1
f 37/28/1 45/5/1 44/27/1
f 37/28/1 36/2/1 45/5/1
f 39/22/1 38/29/1 37/28/1
f 49/9/1 53/12/1 50/7/1
f 53/12/1 51/10/1 50/7/1
f 53/12/1 52/11/1 51/10/1
f 49/9/1 54/1/1 53/12/1
f 49/9/1 55/3/1 54/1/1
f 49/9/1 48/8/1 55/3/1
f 48/8/1 56/4/1 55/3/1
f 47/6/1 56/4/1 48/8/1
f 57/5/1 47/6/1 46/2/1
f 57/5/1 56/4/1 47/6/1
f 64/11/1 66/1/1 65/12/1
f 64/11/1 67/3/1 66/1/1
f 68/4/1 58/2/1 69/5/1
f 68/4/1 59/6/1 58/2/1
f 64/11/1 62/7/1 67/3/1
f 62/7/1 68/4/1 67/3/1
f 62/7/1 61/9/1 68/4/1
f 61/9/1 59/6/1 68/4/1
f 64/11/1 63/10/1 62/7/1
f 60/8/1 59/6/1 61/9/1
f 73/9/1 77/12/1 74/7/1
f 77/12/1 75/10/1 74/7/1
f 77/12/1 76/11/1 75/10/1
f 73/9/1 78/1/1 77/12/1
f 73/9/1 79/3/1 78/1/1
f 73/9/1 72/8/1 79/3/1
f 72/8/1 80/4/1 79/3/1
f 71/6/1 80/4/1 72/8/1
f 81/5/1 71/6/1 70/2/1
f 81/5/1 80/4/1 71/6/1
f 84/30/1 86/31/1 85/32/1
f 84/30/1 87/33/1 86/31/1
f 88/34/1 82/2/1 89/5/1
f 88/34/1 83/35/1 82/2/1
f 84/30/1 88/34/1 87/33/1
f 84/30/1 83/35/1 88/34/1
f 93/22/1 97/23/1 94/24/1
f 97/23/1 95/25/1 94/24/1
f 97/23/1 96/26/1 95/25/1
f 96/26/1 90/2/1 95/25/1
f 93/22/1 98/27/1 97/23/1
f 99/5/1 90/2/1 96/26/1
f 93/22/1 91/28/1 98/27/1
f 91/28/1 99/5/1 98/27/1
f 91/28/1 90/2/1 99/5/1
f 93/22/1 92/29/1 91/28/1
