# Blender 4.1.1
# www.blender.org
mtllib o.mtl
o テキスト
v -0.925994 0.647549 -0.000000
v -0.704903 -0.185014 0.000000
v 0.158187 -0.185014 0.000000
v -0.064755 0.647549 -0.000000
v -0.472710 0.058279 -0.000000
v -0.565217 0.406105 -0.000000
v -0.295097 0.406105 -0.000000
v -0.202590 0.058279 -0.000000
vn -0.0000 -0.0000 -1.0000
vt 0.285714 0.000000
vt 0.857143 0.000000
vt 0.428571 0.000000
vt 0.000000 0.000000
vt 0.714286 0.000000
vt 0.142857 0.000000
vt 1.000000 0.000000
vt 0.571429 0.000000
s 0
usemtl マテリアル.001
f 3/1/1 7/2/1 4/3/1
f 7/2/1 1/4/1 4/3/1
f 7/2/1 6/5/1 1/4/1
f 6/5/1 2/6/1 1/4/1
f 3/1/1 8/7/1 7/2/1
f 5/8/1 2/6/1 6/5/1
f 3/1/1 5/8/1 8/7/1
f 3/1/1 2/6/1 5/8/1
