# Blender 4.1.1
# www.blender.org
mtllib enemy.mtl
o Box003_Standardmaterial_0
v -0.103184 -0.497164 0.570874
v -0.015703 0.155880 0.666037
v 0.042556 -0.483664 -0.033089
v 0.010268 -0.755706 -0.432694
v 0.079449 -0.755706 -0.036807
v -0.815745 -0.755706 -0.013826
v -0.103184 -0.497164 0.570874
v -0.809819 -0.755706 0.522825
v -0.297581 -0.757159 0.703227
v 0.044261 -0.078039 -0.010727
v 0.042556 -0.483664 -0.033089
v -0.015703 0.155880 0.666037
v 0.010268 -0.755706 -0.432694
v 0.042556 -0.483664 -0.033089
v 0.079449 -0.755706 -0.036807
v -0.103184 -0.497164 0.570874
v -0.297581 -0.757159 0.703227
v -0.015703 0.155880 0.666037
v 0.042556 -0.483664 -0.033089
v 0.010268 -0.755706 -0.432694
v -0.815745 -0.755706 -0.013826
v 0.471694 -0.497164 0.570874
v 0.325953 -0.483664 -0.033089
v 0.384212 0.155880 0.666037
v 0.358242 -0.755706 -0.432694
v 1.184255 -0.755706 -0.013826
v 0.289060 -0.755706 -0.036807
v 0.471694 -0.497164 0.570874
v 0.666090 -0.757159 0.703227
v 1.178328 -0.755706 0.522825
v 0.324248 -0.078039 -0.010727
v 0.384212 0.155880 0.666037
v 0.325953 -0.483664 -0.033089
v 0.358242 -0.755706 -0.432694
v 0.289060 -0.755706 -0.036807
v 0.325953 -0.483664 -0.033089
v 0.471694 -0.497164 0.570874
v 0.384212 0.155880 0.666037
v 0.666090 -0.757159 0.703227
v 0.325953 -0.483664 -0.033089
v 1.184255 -0.755706 -0.013826
v 0.358242 -0.755706 -0.432694
v 0.044261 -0.078039 -0.010727
v -0.015703 0.155880 0.666037
v 0.184255 0.155870 0.665998
v 0.184255 -0.078039 -0.010727
v 0.184255 -0.329472 1.141167
v -0.204365 -0.322671 1.147041
v -0.297581 -0.757159 0.703227
v 0.184255 -0.755706 0.711275
v -0.038163 0.281325 1.104797
v 0.184255 0.282778 1.108238
v 0.052733 1.242841 1.063704
v 0.048711 1.208347 1.290920
v 0.184255 1.208347 1.290920
v 0.184255 1.242841 1.063704
v 0.184255 0.392659 1.492840
v -0.030542 0.392659 1.492840
v -0.111701 0.095529 1.560254
v 0.184255 0.098954 1.567306
v -0.297581 -0.757159 0.703227
v -0.809819 -0.755706 0.522825
v -0.815745 -0.755706 -0.013826
v 0.079449 -0.755706 -0.036807
v -0.030542 0.392659 1.492840
v 0.184255 0.392659 1.492840
v 0.184255 1.208347 1.290920
v 0.048711 1.208347 1.290920
v 0.184255 0.325049 1.219720
v 0.052669 0.323483 1.216777
v 0.094517 1.135193 1.136868
v 0.184255 1.135144 1.136536
v -0.038163 0.281325 1.104797
v -0.030542 0.392659 1.492840
v 0.048711 1.208347 1.290920
v 0.052733 1.242841 1.063704
v 0.184255 -0.483664 -0.033089
v 0.042556 -0.483664 -0.033089
v 0.044261 -0.078039 -0.010727
v 0.184255 -0.078039 -0.010727
v 0.184255 -0.755706 -0.033089
v 0.079449 -0.755706 -0.036807
v 0.042556 -0.483664 -0.033089
v 0.184255 -0.483664 -0.033089
v 0.079449 -0.755706 -0.036807
v 0.184255 -0.755706 -0.033089
v 0.184255 -0.755706 0.711275
v -0.297581 -0.757159 0.703227
v -0.015703 0.155880 0.666037
v -0.297581 -0.757159 0.703227
v -0.204365 -0.322671 1.147041
v -0.038163 0.281325 1.104797
v -0.815745 -0.755706 -0.013826
v -0.809819 -0.755706 0.522825
v -0.103184 -0.497164 0.570874
v 0.042556 -0.483664 -0.033089
v -0.111701 0.095529 1.560254
v -0.204365 -0.322671 1.147041
v 0.184255 -0.329472 1.141167
v 0.184255 0.098954 1.567306
v -0.038163 0.281325 1.104797
v -0.204365 -0.322671 1.147041
v -0.111701 0.095529 1.560254
v -0.030542 0.392659 1.492840
v 0.184255 0.282778 1.108238
v -0.038163 0.281325 1.104797
v 0.052669 0.323483 1.216777
v 0.184255 0.325049 1.219720
v -0.038163 0.281325 1.104797
v 0.052733 1.242841 1.063704
v 0.094517 1.135193 1.136868
v 0.052669 0.323483 1.216777
v 0.052733 1.242841 1.063704
v 0.184255 1.242841 1.063704
v 0.184255 1.135144 1.136536
v 0.094517 1.135193 1.136868
v 0.324248 -0.078039 -0.010727
v 0.384212 0.155880 0.666037
v 0.666090 -0.757159 0.703227
v 0.572874 -0.322671 1.147041
v 0.406672 0.281325 1.104797
v 0.315776 1.242841 1.063704
v 0.184255 1.242841 1.063704
v 0.184255 1.208347 1.290920
v 0.319798 1.208347 1.290920
v 0.480211 0.095529 1.560254
v 0.399052 0.392659 1.492840
v 0.184255 0.392659 1.492840
v 0.184255 0.098954 1.567306
v 0.666090 -0.757159 0.703227
v 0.289060 -0.755706 -0.036807
v 1.184255 -0.755706 -0.013826
v 1.178328 -0.755706 0.522825
v 0.399052 0.392659 1.492840
v 0.319798 1.208347 1.290920
v 0.184255 1.208347 1.290920
v 0.184255 0.392659 1.492840
v 0.184255 0.325049 1.219720
v 0.184255 1.135144 1.136536
v 0.273992 1.135193 1.136868
v 0.315840 0.323483 1.216777
v 0.406672 0.281325 1.104797
v 0.315776 1.242841 1.063704
v 0.319798 1.208347 1.290920
v 0.399052 0.392659 1.492840
v 0.324248 -0.078039 -0.010727
v 0.325953 -0.483664 -0.033089
v 0.325953 -0.483664 -0.033089
v 0.289060 -0.755706 -0.036807
v 0.184255 -0.755706 -0.033089
v 0.184255 -0.483664 -0.033089
v 0.289060 -0.755706 -0.036807
v 0.666090 -0.757159 0.703227
v 0.184255 -0.755706 0.711275
v 0.184255 -0.755706 -0.033089
v 0.572874 -0.322671 1.147041
v 0.666090 -0.757159 0.703227
v 0.384212 0.155880 0.666037
v 0.406672 0.281325 1.104797
v 0.471694 -0.497164 0.570874
v 1.178328 -0.755706 0.522825
v 1.184255 -0.755706 -0.013826
v 0.325953 -0.483664 -0.033089
v 0.572874 -0.322671 1.147041
v 0.480211 0.095529 1.560254
v 0.480211 0.095529 1.560254
v 0.572874 -0.322671 1.147041
v 0.406672 0.281325 1.104797
v 0.399052 0.392659 1.492840
v 0.184255 0.282778 1.108238
v 0.184255 0.325049 1.219720
v 0.315840 0.323483 1.216777
v 0.406672 0.281325 1.104797
v 0.406672 0.281325 1.104797
v 0.315840 0.323483 1.216777
v 0.273992 1.135193 1.136868
v 0.315776 1.242841 1.063704
v 0.315776 1.242841 1.063704
v 0.273992 1.135193 1.136868
v 0.184255 1.135144 1.136536
v 0.184255 1.242841 1.063704
vn -0.9601 0.1618 -0.2281
vn -0.0000 -1.0000 -0.0000
vn -0.2671 0.5883 0.7633
vn -0.9958 0.0092 -0.0914
vn 0.9761 0.1347 -0.1706
vn -0.7158 0.1937 -0.6709
vn -0.2674 0.8064 -0.5274
vn 0.9601 0.1618 -0.2281
vn 0.2671 0.5883 0.7633
vn 0.9958 0.0092 -0.0914
vn -0.9761 0.1347 -0.1706
vn 0.7158 0.1937 -0.6709
vn 0.2674 0.8064 -0.5274
vn -0.0000 0.9451 -0.3267
vn -0.0006 0.9539 -0.3001
vn -0.0000 0.9535 -0.3014
vn -0.0000 -0.7119 0.7023
vn -0.0062 -0.7123 0.7019
vn -0.0058 -0.7121 0.7020
vn -0.0000 -0.7118 0.7024
vn -0.0013 0.9614 -0.2752
vn -0.0000 0.9614 -0.2752
vn -0.0000 0.9887 0.1501
vn -0.0145 0.2352 0.9718
vn -0.0207 0.2425 0.9699
vn -0.0158 0.2362 0.9716
vn -0.0111 0.2302 0.9731
vn -0.0010 -1.0000 -0.0013
vn -0.0012 -1.0000 -0.0010
vn -0.0011 -1.0000 -0.0012
vn -0.0007 -1.0000 -0.0017
vn -0.0000 0.2403 0.9707
vn 0.0091 -0.1010 -0.9948
vn 0.0079 -0.1013 -0.9948
vn 0.0174 -0.0995 -0.9949
vn 0.0191 -0.0992 -0.9949
vn -0.9955 0.0947 -0.0069
vn -0.9955 0.0944 -0.0066
vn -0.9955 0.0945 -0.0050
vn -0.9955 0.0946 -0.0051
vn -0.0000 0.0550 -0.9985
vn 0.0132 0.0058 -0.9999
vn 0.0062 0.0011 -1.0000
vn 0.0161 0.0090 -0.9998
vn 0.0215 0.0131 -0.9997
vn 0.0024 -1.0000 -0.0003
vn 0.0021 -1.0000 -0.0002
vn 0.0024 -1.0000 -0.0004
vn -0.9565 0.2718 -0.1059
vn -0.9571 0.2745 -0.0931
vn -0.9547 0.2823 -0.0945
vn -0.9539 0.2804 -0.1068
vn -0.3254 0.9453 -0.0210
vn -0.3237 0.9460 -0.0159
vn -0.3159 0.9482 -0.0337
vn -0.3188 0.9471 -0.0381
vn -0.0043 -0.7038 0.7104
vn -0.0048 -0.7036 0.7106
vn -0.0000 -0.7038 0.7104
vn -0.0000 -0.7039 0.7103
vn -0.9650 0.2574 -0.0507
vn -0.9648 0.2581 -0.0494
vn -0.9643 0.2600 -0.0499
vn -0.9643 0.2597 -0.0512
vn -0.0020 0.9355 -0.3533
vn -0.0016 0.9358 -0.3525
vn -0.0015 0.9357 -0.3528
vn -0.0018 0.9354 -0.3535
vn 0.7915 -0.1003 -0.6029
vn 0.7919 -0.1002 -0.6024
vn 0.7920 -0.1002 -0.6022
vn 0.7915 -0.1004 -0.6028
vn -0.0015 -0.5615 -0.8275
vn -0.0015 -0.5614 -0.8275
vn -0.0013 -0.5613 -0.8276
vn -0.0011 -0.5612 -0.8277
vn 0.0006 0.9539 -0.3001
vn 0.0058 -0.7121 0.7020
vn 0.0062 -0.7123 0.7019
vn 0.0013 0.9614 -0.2752
vn 0.0158 0.2362 0.9716
vn 0.0207 0.2425 0.9699
vn 0.0146 0.2352 0.9718
vn 0.0111 0.2302 0.9731
vn 0.0010 -1.0000 -0.0013
vn 0.0007 -1.0000 -0.0017
vn 0.0011 -1.0000 -0.0012
vn 0.0012 -1.0000 -0.0010
vn -0.0091 -0.1010 -0.9948
vn -0.0191 -0.0992 -0.9949
vn -0.0174 -0.0995 -0.9949
vn -0.0079 -0.1013 -0.9948
vn 0.9955 0.0947 -0.0069
vn 0.9955 0.0946 -0.0051
vn 0.9955 0.0945 -0.0050
vn 0.9955 0.0944 -0.0066
vn -0.0161 0.0090 -0.9998
vn -0.0062 0.0011 -1.0000
vn -0.0132 0.0058 -0.9999
vn -0.0215 0.0131 -0.9997
vn -0.0024 -1.0000 -0.0003
vn -0.0024 -1.0000 -0.0004
vn -0.0021 -1.0000 -0.0002
vn 0.9547 0.2823 -0.0945
vn 0.9571 0.2745 -0.0931
vn 0.9565 0.2718 -0.1059
vn 0.9539 0.2804 -0.1068
vn 0.3159 0.9482 -0.0337
vn 0.3237 0.9460 -0.0159
vn 0.3254 0.9453 -0.0210
vn 0.3188 0.9471 -0.0381
vn 0.0048 -0.7036 0.7106
vn 0.0043 -0.7038 0.7104
vn 0.9643 0.2600 -0.0499
vn 0.9648 0.2581 -0.0494
vn 0.9650 0.2574 -0.0507
vn 0.9643 0.2597 -0.0512
vn 0.0020 0.9355 -0.3533
vn 0.0018 0.9354 -0.3535
vn 0.0015 0.9357 -0.3528
vn 0.0016 0.9358 -0.3525
vn -0.7915 -0.1003 -0.6029
vn -0.7915 -0.1004 -0.6028
vn -0.7920 -0.1002 -0.6022
vn -0.7919 -0.1002 -0.6024
vn 0.0016 -0.5615 -0.8274
vn 0.0011 -0.5612 -0.8277
vn 0.0013 -0.5613 -0.8276
vn 0.0015 -0.5614 -0.8275
vt 0.583283 0.355239
vt 0.499838 0.452237
vt 0.499838 0.269777
vt 0.528038 0.739866
vt 0.528038 0.817110
vt 0.357787 0.791843
vt 0.749018 0.904474
vt 0.604100 0.904474
vt 0.698486 0.859900
vt 0.582491 0.077486
vt 0.637243 0.021818
vt 0.637243 0.204278
vt 0.904474 0.402798
vt 0.904474 0.495919
vt 0.860703 0.466443
vt 0.508384 0.081477
vt 0.539601 0.021762
vt 0.539601 0.205562
vt 0.666068 0.548594
vt 0.666068 0.455473
vt 0.835097 0.511295
vt 0.495252 0.498553
vt 0.580713 0.581998
vt 0.398253 0.581998
vt 0.681604 0.182660
vt 0.758011 0.021884
vt 0.758011 0.193999
vt 0.909613 0.691203
vt 0.865039 0.640671
vt 0.909613 0.546286
vt 0.567074 0.503204
vt 0.621826 0.376412
vt 0.621826 0.558872
vt 0.340463 0.398188
vt 0.276818 0.441959
vt 0.247341 0.398188
vt 0.081477 0.531510
vt 0.205562 0.562727
vt 0.021762 0.562727
vt 0.410187 0.625965
vt 0.583283 0.625965
vt 0.430253 0.716899
vt 0.090794 0.021268
vt 0.102319 0.158895
vt 0.063886 0.158887
vt 0.063886 0.021268
vt 0.278699 0.129650
vt 0.276975 0.054956
vt 0.396350 0.037035
vt 0.395055 0.129650
vt 0.106635 0.246605
vt 0.063886 0.247317
vt 0.930169 0.349968
vt 0.885997 0.350741
vt 0.885997 0.324689
vt 0.930169 0.324689
vt 0.491318 0.976402
vt 0.491318 0.935117
vt 0.549879 0.919518
vt 0.549555 0.976421
vt 0.647098 0.603735
vt 0.745163 0.639494
vt 0.745163 0.742646
vt 0.573066 0.745163
vt 0.570806 0.829958
vt 0.570806 0.788673
vt 0.732316 0.788673
vt 0.732316 0.814725
vt 0.842805 0.380048
vt 0.817507 0.380290
vt 0.825557 0.223523
vt 0.842805 0.223526
vt 0.021049 0.445171
vt 0.039301 0.369742
vt 0.198323 0.401822
vt 0.206847 0.445171
vt 0.913213 0.280079
vt 0.885978 0.280079
vt 0.886305 0.201998
vt 0.913213 0.201998
vt 0.584313 0.235500
vt 0.604469 0.235493
vt 0.611548 0.287787
vt 0.584313 0.287787
vt 0.865230 0.745630
vt 0.885383 0.746008
vt 0.887772 0.889057
vt 0.795149 0.889057
vt 0.234469 0.039749
vt 0.234470 0.223549
vt 0.145605 0.141852
vt 0.148632 0.021212
vt 0.773907 0.412409
vt 0.670754 0.412409
vt 0.660020 0.267890
vt 0.775998 0.239326
vt 0.286651 0.767917
vt 0.307059 0.880475
vt 0.232424 0.883918
vt 0.229747 0.767806
vt 0.950726 0.037348
vt 0.950726 0.158026
vt 0.865851 0.081332
vt 0.874778 0.021390
vt 0.305389 0.948156
vt 0.262634 0.948156
vt 0.280476 0.925454
vt 0.305774 0.925244
vt 0.380290 0.506197
vt 0.194492 0.506197
vt 0.214915 0.489667
vt 0.371504 0.478693
vt 0.930835 0.862077
vt 0.930876 0.836798
vt 0.955865 0.836839
vt 0.955865 0.854087
vt 0.036979 0.021268
vt 0.025454 0.158894
vt 0.396350 0.222264
vt 0.276975 0.204343
vt 0.021137 0.246605
vt 0.930586 0.735680
vt 0.955865 0.735680
vt 0.955865 0.779852
vt 0.929813 0.779852
vt 0.922088 0.978990
vt 0.937706 0.920435
vt 0.978990 0.920448
vt 0.978990 0.978685
vt 0.311397 0.583179
vt 0.385429 0.724607
vt 0.213332 0.722090
vt 0.213332 0.618938
vt 0.829958 0.565667
vt 0.814725 0.727177
vt 0.788673 0.727177
vt 0.788673 0.565667
vt 0.802090 0.178336
vt 0.802115 0.021814
vt 0.819363 0.021814
vt 0.827388 0.178582
vt 0.457376 0.266439
vt 0.457376 0.452237
vt 0.414027 0.443713
vt 0.381947 0.284691
vt 0.940120 0.201998
vt 0.940448 0.280079
vt 0.074516 0.321191
vt 0.022222 0.314113
vt 0.022229 0.293956
vt 0.074516 0.293956
vt 0.494634 0.875505
vt 0.351207 0.945587
vt 0.351207 0.852963
vt 0.494256 0.855352
vt 0.231385 0.355880
vt 0.149688 0.267015
vt 0.333489 0.267015
vt 0.352025 0.352852
vt 0.137470 0.634048
vt 0.126735 0.778567
vt 0.023583 0.778567
vt 0.021492 0.605484
vt 0.157711 0.883918
vt 0.172910 0.770539
vt 0.021761 0.898492
vt 0.106635 0.821798
vt 0.106635 0.942477
vt 0.030688 0.958434
vt 0.169231 0.950726
vt 0.168846 0.927813
vt 0.194144 0.928024
vt 0.211986 0.950726
vt 0.465727 0.210059
vt 0.438223 0.201273
vt 0.449197 0.044683
vt 0.465727 0.024261
vt 0.706620 0.021235
vt 0.698590 0.046252
vt 0.681342 0.046223
vt 0.681342 0.021235
s 0
usemtl マテリアル
f 1/1/1 2/2/1 3/3/1
f 4/4/2 5/5/2 6/6/2
f 7/7/3 8/8/3 9/9/3
f 10/10/4 11/11/4 12/12/4
f 13/13/5 14/14/5 15/15/5
s 1
f 16/16/6 17/17/6 18/18/6
s 0
f 19/19/7 20/20/7 21/21/7
f 22/22/8 23/23/8 24/24/8
f 25/25/2 26/26/2 27/27/2
f 28/28/9 29/29/9 30/30/9
f 31/31/10 32/32/10 33/33/10
f 34/34/11 35/35/11 36/36/11
s 1
f 37/37/12 38/38/12 39/39/12
s 0
f 40/40/13 41/41/13 42/42/13
s 1
f 43/43/14 44/44/15 45/45/16
f 43/43/14 45/45/16 46/46/14
f 47/47/17 48/48/18 49/49/19
f 47/47/17 49/49/19 50/50/20
f 44/44/15 51/51/21 52/52/22
f 44/44/15 52/52/22 45/45/16
s 0
f 53/53/23 54/54/23 55/55/23
f 53/53/23 55/55/23 56/56/23
s 1
f 57/57/24 58/58/25 59/59/26
f 57/57/24 59/59/26 60/60/27
f 61/61/28 62/62/29 63/63/30
f 61/61/28 63/63/30 64/64/31
s 0
f 65/65/32 66/66/32 67/67/32
f 65/65/32 67/67/32 68/68/32
s 1
f 69/69/33 70/70/34 71/71/35
f 69/69/33 71/71/35 72/72/36
f 73/73/37 74/74/38 75/75/39
f 73/73/37 75/75/39 76/76/40
s 0
f 77/77/41 78/78/41 79/79/41
f 77/77/41 79/79/41 80/80/41
s 1
f 81/81/42 82/82/43 83/83/44
f 81/81/42 83/83/44 84/84/45
f 85/85/46 86/86/47 87/87/48
f 85/85/46 87/87/48 88/88/48
f 89/89/49 90/90/50 91/91/51
f 89/89/49 91/91/51 92/92/52
f 93/93/53 94/94/54 95/95/55
f 93/93/53 95/95/55 96/96/56
f 97/97/57 98/98/58 99/99/59
f 97/97/57 99/99/59 100/100/60
f 101/101/61 102/102/62 103/103/63
f 101/101/61 103/103/63 104/104/64
f 105/105/65 106/106/66 107/107/67
f 105/105/65 107/107/67 108/108/68
f 109/109/69 110/110/70 111/111/71
f 109/109/69 111/111/71 112/112/72
f 113/113/73 114/114/74 115/115/75
f 113/113/73 115/115/75 116/116/76
f 117/117/14 46/46/14 45/45/16
f 117/117/14 45/45/16 118/118/77
f 119/119/78 120/120/79 47/47/17
f 119/119/78 47/47/17 50/50/20
f 118/118/77 45/45/16 52/52/22
f 118/118/77 52/52/22 121/121/80
s 0
f 122/122/23 123/123/23 124/124/23
f 122/122/23 124/124/23 125/125/23
s 1
f 126/126/81 127/127/82 128/128/83
f 126/126/81 128/128/83 129/129/84
f 130/130/85 131/131/86 132/132/87
f 130/130/85 132/132/87 133/133/88
s 0
f 134/134/32 135/135/32 136/136/32
f 134/134/32 136/136/32 137/137/32
s 1
f 138/138/89 139/139/90 140/140/91
f 138/138/89 140/140/91 141/141/92
f 142/142/93 143/143/94 144/144/95
f 142/142/93 144/144/95 145/145/96
s 0
f 146/146/41 147/147/41 77/77/41
f 146/146/41 77/77/41 80/80/41
s 1
f 148/148/97 149/149/98 150/150/99
f 148/148/97 150/150/99 151/151/100
f 152/152/101 153/153/102 154/154/102
f 152/152/101 154/154/102 155/155/103
f 156/156/104 157/157/105 158/158/106
f 156/156/104 158/158/106 159/159/107
f 160/160/108 161/161/109 162/162/110
f 160/160/108 162/162/110 163/163/111
f 99/99/59 164/164/112 165/165/113
f 99/99/59 165/165/113 100/100/60
f 166/166/114 167/167/115 168/168/116
f 166/166/114 168/168/116 169/169/117
f 170/170/118 171/171/119 172/172/120
f 170/170/118 172/172/120 173/173/121
f 174/174/122 175/175/123 176/176/124
f 174/174/122 176/176/124 177/177/125
f 178/178/126 179/179/127 180/180/128
f 178/178/126 180/180/128 181/181/129
