# Blender 4.1.1
# www.blender.org
mtllib enemybullet.mtl
o 立方体
v 0.001328 -0.141419 -0.100000
v 0.141921 0.000826 -0.100000
v 0.001328 -0.141419 0.100000
v 0.141921 0.000826 0.100000
v -0.140917 -0.000826 -0.100000
v -0.000324 0.141419 -0.100000
v -0.140917 -0.000826 0.100000
v -0.000324 0.141419 0.100000
vn 0.0047 -0.8165 -0.5774
vn 0.8165 0.0047 -0.5773
vn 0.0048 -0.8165 0.5773
vn 0.8165 0.0048 0.5774
vn -0.8165 -0.0047 -0.5773
vn -0.0047 0.8165 -0.5774
vn -0.8165 -0.0048 0.5774
vn -0.0048 0.8165 0.5773
vt 0.625000 0.000000
vt 0.375000 0.250000
vt 0.375000 0.000000
vt 0.625000 0.250000
vt 0.375000 0.500000
vt 0.625000 0.500000
vt 0.375000 0.750000
vt 0.625000 0.750000
vt 0.375000 1.000000
vt 0.125000 0.750000
vt 0.125000 0.500000
vt 0.875000 0.500000
vt 0.625000 1.000000
vt 0.875000 0.750000
s 1
usemtl マテリアル.001
f 2/1/2 3/2/3 1/3/1
f 4/4/4 7/5/7 3/2/3
f 8/6/8 5/7/5 7/5/7
f 6/8/6 1/9/1 5/7/5
f 7/5/7 1/10/1 3/11/3
f 4/12/4 6/8/6 8/6/8
f 2/1/2 4/4/4 3/2/3
f 4/4/4 8/6/8 7/5/7
f 8/6/8 6/8/6 5/7/5
f 6/8/6 2/13/2 1/9/1
f 7/5/7 5/7/5 1/10/1
f 4/12/4 2/14/2 6/8/6
