# Blender 4.1.1
# www.blender.org
mtllib title.mtl
o テキスト
v -3.241950 0.018399 -0.000000
v -3.289788 0.570377 -0.000000
v -3.495860 0.570377 -0.000000
v -3.451702 0.073597 -0.000000
v -3.689052 0.073597 -0.000000
v -3.684453 0.018399 -0.000000
v -2.870285 0.018399 -0.000000
v -2.962281 0.507820 -0.000000
v -3.153634 0.507820 -0.000000
v -3.061637 0.018399 -0.000000
v -1.972401 0.018399 -0.000000
v -2.020239 0.570377 -0.000000
v -2.226311 0.570377 -0.000000
v -2.206992 0.349586 -0.000000
v -2.725851 0.349586 -0.000000
v -2.721251 0.294388 -0.000000
v -2.202392 0.294388 -0.000000
v -2.177553 0.018399 -0.000000
v -1.311867 0.018399 -0.000000
v -1.344986 0.411224 -0.000000
v -1.000920 0.349586 -0.000000
v -1.007360 0.419503 -0.000000
v -1.846366 0.570377 -0.000000
v -1.839926 0.500460 -0.000000
v -1.554738 0.448942 -0.000000
v -1.517019 0.018399 -0.000000
v -0.607176 0.018399 -0.000000
v -0.635695 0.228151 -0.000000
v -0.277829 0.228151 -0.000000
v -0.266789 0.154554 -0.000000
v -0.060718 0.154554 -0.000000
v -0.120515 0.556578 -0.000000
v -0.885925 0.556578 -0.000000
v -0.813247 0.018399 -0.000000
v -0.318307 0.501380 -0.000000
v -0.286109 0.283349 -0.000000
v -0.643054 0.283349 -0.000000
v -0.672493 0.501380 -0.000000
vn -0.0000 -0.0000 -1.0000
vt 0.666667 0.000000
vt 0.888889 0.000000
vt 0.777778 0.000000
vt 1.000000 0.000000
vt 0.000000 0.000000
vt 0.222222 0.000000
vt 0.111111 0.000000
vt 0.333333 0.000000
vt 0.444444 0.000000
vt 0.555556 0.000000
vt 0.285714 0.000000
vt 0.142857 0.000000
vt 0.428571 0.000000
vt 0.857143 0.000000
vt 0.571429 0.000000
vt 0.714286 0.000000
vt 0.363636 0.000000
vt 0.727273 0.000000
vt 0.454545 0.000000
vt 0.545455 0.000000
vt 0.636364 0.000000
vt 0.818182 0.000000
vt 0.909091 0.000000
vt 0.181818 0.000000
vt 0.090909 0.000000
vt 0.272727 0.000000
s 0
usemtl マテリアル
f 7/1/1 9/2/1 8/3/1
f 7/1/1 10/4/1 9/2/1
f 1/5/1 3/6/1 2/7/1
f 1/5/1 4/8/1 3/6/1
f 1/5/1 5/9/1 4/8/1
f 1/5/1 6/10/1 5/9/1
f 11/5/1 13/11/1 12/12/1
f 11/5/1 14/13/1 13/11/1
f 11/5/1 17/14/1 14/13/1
f 17/14/1 15/15/1 14/13/1
f 17/14/1 16/16/1 15/15/1
f 11/5/1 18/4/1 17/14/1
f 22/13/1 24/16/1 23/15/1
f 22/13/1 25/14/1 24/16/1
f 22/13/1 20/12/1 25/14/1
f 20/12/1 26/4/1 25/14/1
f 21/11/1 20/12/1 22/13/1
f 19/5/1 26/4/1 20/12/1
f 31/17/1 35/18/1 32/19/1
f 35/18/1 33/20/1 32/19/1
f 35/18/1 38/4/1 33/20/1
f 38/4/1 34/21/1 33/20/1
f 31/17/1 36/22/1 35/18/1
f 37/23/1 34/21/1 38/4/1
f 31/17/1 29/24/1 36/22/1
f 29/24/1 37/23/1 36/22/1
f 29/24/1 28/25/1 37/23/1
f 28/25/1 34/21/1 37/23/1
f 31/17/1 30/26/1 29/24/1
f 27/5/1 34/21/1 28/25/1
