# Blender 4.1.1
# www.blender.org
mtllib title.mtl
o テキスト.001
v -6.662373 0.224471 -0.000000
v -6.666973 0.279669 -0.000000
v -7.458141 0.279669 -0.000000
v -7.453542 0.224471 -0.000000
v -6.273229 0.018399 -0.000000
v -6.313707 0.448942 -0.000000
v -6.083716 0.448942 -0.000000
v -5.933763 0.018399 -0.000000
v -5.728611 0.018399 -0.000000
v -5.877645 0.448942 -0.000000
v -5.752530 0.448942 -0.000000
v -5.757130 0.504140 -0.000000
v -5.896964 0.504140 -0.000000
v -5.919963 0.570377 -0.000000
v -6.126035 0.570377 -0.000000
v -6.103035 0.504140 -0.000000
v -6.408463 0.504140 -0.000000
v -6.406623 0.478381 -0.000000
v -6.437902 0.478381 -0.000000
v -6.446182 0.570377 -0.000000
v -6.486660 0.570377 -0.000000
v -6.478381 0.478381 -0.000000
v -6.507819 0.478381 -0.000000
v -6.516099 0.570377 -0.000000
v -6.556578 0.570377 -0.000000
v -6.548298 0.478381 -0.000000
v -6.522539 0.478381 -0.000000
v -6.478381 0.018399 -0.000000
v -4.804048 0.491260 -0.000000
v -4.808647 0.546458 -0.000000
v -5.095676 0.546458 -0.000000
v -5.091076 0.491260 -0.000000
v -5.037718 0.018399 -0.000000
v -5.375345 0.524379 -0.000000
v -5.610855 0.524379 -0.000000
v -5.273229 0.018399 -0.000000
v -3.859246 0.224471 -0.000000
v -3.889604 0.570377 -0.000000
v -4.095676 0.570377 -0.000000
v -4.065317 0.224471 -0.000000
v -4.345906 0.018399 -0.000000
v -4.428703 0.515179 -0.000000
v -4.331187 0.515179 -0.000000
v -4.335786 0.570377 -0.000000
v -4.643974 0.570377 -0.000000
v -4.551978 0.018399 -0.000000
v -2.870285 0.018399 -0.000000
v -3.413983 0.500460 -0.000000
v -2.916283 0.500460 -0.000000
v -2.920883 0.555658 -0.000000
v -3.712051 0.555658 -0.000000
v -3.409384 0.287948 -0.000000
v -3.654094 0.018399 -0.000000
v -3.433302 0.018399 -0.000000
v -3.287028 0.179393 -0.000000
v -3.105796 0.018399 -0.000000
v -2.253910 0.018399 -0.000000
v -2.287029 0.411224 -0.000000
v -1.942962 0.349586 -0.000000
v -1.949402 0.419503 -0.000000
v -2.788408 0.570377 -0.000000
v -2.781969 0.500460 -0.000000
v -2.496780 0.448942 -0.000000
v -2.459062 0.018399 -0.000000
v -1.042318 0.448942 -0.000000
v -1.046918 0.504140 -0.000000
v -1.186753 0.504140 -0.000000
v -1.209752 0.570377 -0.000000
v -1.415823 0.570377 -0.000000
v -1.392824 0.504140 -0.000000
v -1.815087 0.504140 -0.000000
v -1.768169 0.018399 -0.000000
v -1.563017 0.018399 -0.000000
v -1.603496 0.448942 -0.000000
v -1.373505 0.448942 -0.000000
v -1.223551 0.018399 -0.000000
v -1.018399 0.018399 -0.000000
v -1.167433 0.448942 -0.000000
v -0.044158 0.018399 -0.000000
v -0.587856 0.500460 -0.000000
v -0.090156 0.500460 -0.000000
v -0.094756 0.555658 -0.000000
v -0.885925 0.555658 -0.000000
v -0.583257 0.287948 -0.000000
v -0.827967 0.018399 -0.000000
v -0.607176 0.018399 -0.000000
v -0.460902 0.179393 -0.000000
v -0.279669 0.018399 -0.000000
vn -0.0000 -0.0000 -1.0000
vt 0.000000 0.000000
vt 0.666667 0.000000
vt 0.333333 0.000000
vt 1.000000 0.000000
vt 0.347826 0.000000
vt 0.434783 0.000000
vt 0.391304 0.000000
vt 0.478261 0.000000
vt 0.608696 0.000000
vt 0.695652 0.000000
vt 0.652174 0.000000
vt 0.739130 0.000000
vt 0.782609 0.000000
vt 0.869565 0.000000
vt 0.826087 0.000000
vt 0.913043 0.000000
vt 0.260870 0.000000
vt 0.304348 0.000000
vt 0.521739 0.000000
vt 0.565217 0.000000
vt 0.956522 0.000000
vt 0.217391 0.000000
vt 0.086957 0.000000
vt 0.043478 0.000000
vt 0.173913 0.000000
vt 0.130435 0.000000
vt 0.285714 0.000000
vt 0.142857 0.000000
vt 0.428571 0.000000
vt 0.571429 0.000000
vt 0.857143 0.000000
vt 0.714286 0.000000
vt 0.888889 0.000000
vt 0.777778 0.000000
vt 0.555556 0.000000
vt 0.444444 0.000000
vt 0.222222 0.000000
vt 0.111111 0.000000
vt 0.153846 0.000000
vt 0.307692 0.000000
vt 0.230769 0.000000
vt 0.384615 0.000000
vt 0.076923 0.000000
vt 0.461538 0.000000
vt 0.769231 0.000000
vt 0.692308 0.000000
vt 0.538462 0.000000
vt 0.923077 0.000000
vt 0.846154 0.000000
vt 0.615385 0.000000
s 0
usemtl マテリアル.001
f 1/1/1 3/2/1 2/3/1
f 1/1/1 4/4/1 3/2/1
f 13/5/1 15/6/1 14/7/1
f 13/5/1 16/8/1 15/6/1
f 19/9/1 21/10/1 20/11/1
f 19/9/1 22/12/1 21/10/1
f 23/13/1 25/14/1 24/15/1
f 23/13/1 26/16/1 25/14/1
f 11/17/1 13/5/1 12/18/1
f 11/17/1 16/8/1 13/5/1
f 11/17/1 17/19/1 16/8/1
f 11/17/1 18/20/1 17/19/1
f 11/17/1 19/9/1 18/20/1
f 11/17/1 22/12/1 19/9/1
f 11/17/1 23/13/1 22/12/1
f 11/17/1 27/21/1 23/13/1
f 27/21/1 26/16/1 23/13/1
f 11/17/1 10/22/1 27/21/1
f 10/22/1 7/23/1 27/21/1
f 7/23/1 6/24/1 27/21/1
f 6/24/1 28/4/1 27/21/1
f 9/25/1 7/23/1 10/22/1
f 9/25/1 8/26/1 7/23/1
f 5/1/1 28/4/1 6/24/1
f 29/1/1 31/27/1 30/28/1
f 29/1/1 32/29/1 31/27/1
f 33/30/1 35/31/1 34/32/1
f 33/30/1 36/4/1 35/31/1
f 43/2/1 45/33/1 44/34/1
f 43/2/1 42/35/1 45/33/1
f 42/35/1 46/4/1 45/33/1
f 41/36/1 46/4/1 42/35/1
f 37/1/1 39/37/1 38/38/1
f 37/1/1 40/3/1 39/37/1
f 49/37/1 51/36/1 50/3/1
f 49/37/1 48/38/1 51/36/1
f 48/38/1 52/35/1 51/36/1
f 47/1/1 52/35/1 48/38/1
f 47/1/1 55/33/1 52/35/1
f 55/33/1 53/2/1 52/35/1
f 47/1/1 56/4/1 55/33/1
f 54/34/1 53/2/1 55/33/1
f 60/29/1 62/32/1 61/30/1
f 60/29/1 63/31/1 62/32/1
f 60/29/1 58/28/1 63/31/1
f 58/28/1 64/4/1 63/31/1
f 59/27/1 58/28/1 60/29/1
f 57/1/1 64/4/1 58/28/1
f 67/39/1 69/40/1 68/41/1
f 67/39/1 70/42/1 69/40/1
f 65/1/1 67/39/1 66/43/1
f 65/1/1 70/42/1 67/39/1
f 65/1/1 71/44/1 70/42/1
f 65/1/1 78/4/1 71/44/1
f 78/4/1 75/45/1 71/44/1
f 75/45/1 74/46/1 71/44/1
f 74/46/1 72/47/1 71/44/1
f 77/48/1 75/45/1 78/4/1
f 77/48/1 76/49/1 75/45/1
f 73/50/1 72/47/1 74/46/1
f 81/37/1 83/36/1 82/3/1
f 81/37/1 80/38/1 83/36/1
f 80/38/1 84/35/1 83/36/1
f 79/1/1 84/35/1 80/38/1
f 79/1/1 87/33/1 84/35/1
f 87/33/1 85/2/1 84/35/1
f 79/1/1 88/4/1 87/33/1
f 86/34/1 85/2/1 87/33/1
